<svg xmlns="http://www.w3.org/2000/svg" width="1250" height="760" viewBox="0 0 1250 760">
  <rect width="1250" height="760" fill="white"/>
  <style>
    text { font-family: Arial, sans-serif; fill: #172033; }
    .titulo { font-size: 25px; font-weight: bold; }
    .subtitulo { font-size: 20px; font-weight: bold; }
    .nota { font-size: 15px; fill: #3c4963; }
    .alabe { fill: #69aee6; stroke: #164b76; stroke-width: 0.8; }
  </style>
  <text x="35" y="38" class="titulo">Geometria CAD 2D V1.1 - ventilador Sirocco</text>
  <text x="35" y="66" class="nota">Coordenadas DXF en milimetros. Verificar CFD, resistencia y tolerancias antes de fabricar.</text>
  <text x="235" y="105" class="subtitulo">Rodete, 48 alabes</text>
  <polygon points="523.4,380.1 523.6,381.0 524.0,381.8 524.3,382.6 524.7,383.4 525.1,384.2 525.5,385.0 526.0,385.7 526.5,386.5 527.0,387.2 527.5,387.9 528.1,388.5 528.7,389.2 529.3,389.8 530.0,390.4 530.6,391.0 531.3,391.6 532.0,392.1 532.8,392.6 533.5,393.1 534.3,393.5 535.1,393.9 535.9,394.3 536.7,394.7 537.5,395.0 538.3,395.3 539.2,395.5 540.0,395.8 540.9,396.0 541.8,396.1 542.6,396.2 543.5,396.3 544.4,396.4 545.3,396.4 546.2,396.4 547.1,396.4 547.9,396.3 548.8,396.2 549.7,396.1 550.6,395.9 551.4,395.7 552.3,395.5 553.1,395.2 553.9,394.9 554.8,394.6 555.6,394.2 556.4,393.8 557.1,393.4 557.9,392.9 557.4,392.2 556.7,392.6 555.9,393.0 555.2,393.4 554.4,393.7 553.6,394.0 552.8,394.3 552.0,394.6 551.2,394.8 550.4,395.0 549.5,395.2 548.7,395.3 547.8,395.4 547.0,395.5 546.1,395.5 545.3,395.5 544.4,395.5 543.6,395.4 542.8,395.3 541.9,395.2 541.1,395.1 540.3,394.9 539.4,394.7 538.6,394.4 537.8,394.1 537.0,393.8 536.2,393.5 535.5,393.1 534.7,392.7 534.0,392.3 533.3,391.8 532.6,391.4 531.9,390.8 531.2,390.3 530.6,389.8 530.0,389.2 529.4,388.6 528.8,387.9 528.2,387.3 527.7,386.6 527.2,385.9 526.8,385.2 526.3,384.5 525.9,383.8 525.5,383.0 525.1,382.2 524.8,381.5 524.5,380.7 524.2,379.9" class="alabe"/><polygon points="521.7,354.9 522.1,355.7 522.5,356.5 523.0,357.2 523.5,358.0 524.0,358.7 524.5,359.4 525.1,360.1 525.6,360.8 526.2,361.4 526.9,362.0 527.5,362.6 528.2,363.2 528.9,363.7 529.6,364.2 530.4,364.7 531.1,365.2 531.9,365.6 532.7,366.0 533.5,366.4 534.3,366.7 535.1,367.0 536.0,367.3 536.8,367.6 537.7,367.8 538.5,368.0 539.4,368.1 540.3,368.2 541.2,368.3 542.1,368.3 542.9,368.4 543.8,368.3 544.7,368.3 545.6,368.2 546.5,368.1 547.3,367.9 548.2,367.7 549.1,367.5 549.9,367.3 550.7,367.0 551.6,366.7 552.4,366.3 553.2,365.9 554.0,365.5 554.7,365.1 555.5,364.6 556.2,364.1 556.9,363.6 557.6,363.1 557.1,362.4 556.4,362.9 555.7,363.4 555.0,363.9 554.3,364.3 553.5,364.7 552.8,365.1 552.0,365.5 551.2,365.8 550.4,366.1 549.6,366.4 548.8,366.6 548.0,366.8 547.2,367.0 546.3,367.2 545.5,367.3 544.6,367.4 543.8,367.4 542.9,367.4 542.1,367.4 541.2,367.4 540.4,367.3 539.6,367.2 538.7,367.1 537.9,366.9 537.1,366.7 536.2,366.4 535.4,366.2 534.6,365.9 533.9,365.6 533.1,365.2 532.3,364.8 531.6,364.4 530.9,364.0 530.1,363.5 529.5,363.0 528.8,362.5 528.1,361.9 527.5,361.4 526.9,360.8 526.3,360.1 525.8,359.5 525.2,358.8 524.7,358.2 524.2,357.5 523.8,356.8 523.3,356.0 522.9,355.3 522.6,354.5" class="alabe"/><polygon points="516.8,330.1 517.3,330.8 517.8,331.5 518.4,332.2 518.9,332.9 519.5,333.6 520.1,334.2 520.8,334.8 521.5,335.4 522.1,335.9 522.8,336.5 523.6,337.0 524.3,337.5 525.1,337.9 525.9,338.3 526.7,338.7 527.5,339.1 528.3,339.4 529.1,339.7 530.0,339.9 530.8,340.2 531.7,340.4 532.6,340.5 533.4,340.7 534.3,340.8 535.2,340.8 536.1,340.9 537.0,340.9 537.8,340.8 538.7,340.8 539.6,340.7 540.5,340.5 541.3,340.4 542.2,340.2 543.1,339.9 543.9,339.7 544.7,339.4 545.6,339.0 546.4,338.7 547.2,338.3 547.9,337.9 548.7,337.4 549.4,336.9 550.2,336.4 550.9,335.9 551.6,335.3 552.2,334.7 552.9,334.1 553.5,333.5 552.8,332.9 552.2,333.5 551.6,334.1 551.0,334.6 550.3,335.2 549.6,335.7 548.9,336.2 548.2,336.6 547.5,337.1 546.7,337.5 546.0,337.8 545.2,338.2 544.4,338.5 543.6,338.8 542.8,339.0 542.0,339.3 541.2,339.5 540.3,339.6 539.5,339.8 538.6,339.9 537.8,339.9 536.9,340.0 536.1,340.0 535.2,339.9 534.4,339.9 533.5,339.8 532.7,339.6 531.9,339.5 531.0,339.3 530.2,339.1 529.4,338.8 528.6,338.5 527.8,338.2 527.0,337.9 526.3,337.5 525.5,337.1 524.8,336.7 524.1,336.2 523.4,335.7 522.7,335.2 522.0,334.7 521.4,334.1 520.8,333.5 520.2,332.9 519.6,332.3 519.1,331.7 518.5,331.0 518.1,330.3 517.6,329.6" class="alabe"/><polygon points="508.7,306.1 509.3,306.8 509.9,307.4 510.5,308.1 511.2,308.7 511.8,309.2 512.5,309.8 513.3,310.3 514.0,310.8 514.7,311.2 515.5,311.7 516.3,312.1 517.1,312.5 517.9,312.8 518.7,313.1 519.6,313.4 520.4,313.6 521.3,313.9 522.2,314.0 523.0,314.2 523.9,314.3 524.8,314.4 525.7,314.4 526.6,314.5 527.4,314.4 528.3,314.4 529.2,314.3 530.1,314.2 531.0,314.0 531.8,313.9 532.7,313.6 533.5,313.4 534.4,313.1 535.2,312.8 536.0,312.5 536.8,312.1 537.6,311.7 538.4,311.2 539.1,310.8 539.9,310.3 540.6,309.8 541.3,309.2 541.9,308.7 542.6,308.1 543.2,307.4 543.8,306.8 544.4,306.1 545.0,305.4 545.5,304.7 544.8,304.2 544.2,304.9 543.7,305.5 543.2,306.2 542.6,306.8 542.0,307.4 541.3,308.0 540.7,308.5 540.0,309.0 539.3,309.5 538.6,310.0 537.9,310.5 537.2,310.9 536.4,311.3 535.6,311.6 534.9,312.0 534.1,312.3 533.2,312.5 532.4,312.8 531.6,313.0 530.8,313.1 529.9,313.3 529.1,313.4 528.3,313.5 527.4,313.5 526.6,313.5 525.7,313.5 524.9,313.5 524.0,313.4 523.2,313.3 522.3,313.1 521.5,313.0 520.7,312.8 519.9,312.5 519.1,312.3 518.3,312.0 517.5,311.6 516.7,311.3 515.9,310.9 515.2,310.5 514.5,310.0 513.8,309.5 513.1,309.0 512.4,308.5 511.8,308.0 511.1,307.4 510.5,306.8 510.0,306.2 509.4,305.5" class="alabe"/><polygon points="497.5,283.4 498.2,284.0 498.9,284.6 499.6,285.1 500.3,285.6 501.1,286.1 501.8,286.5 502.6,287.0 503.4,287.4 504.2,287.7 505.0,288.0 505.8,288.3 506.7,288.6 507.5,288.8 508.4,289.0 509.3,289.2 510.1,289.3 511.0,289.5 511.9,289.5 512.8,289.6 513.7,289.6 514.6,289.5 515.4,289.5 516.3,289.4 517.2,289.2 518.1,289.1 518.9,288.9 519.8,288.6 520.6,288.4 521.5,288.1 522.3,287.8 523.1,287.4 523.9,287.0 524.7,286.6 525.4,286.1 526.2,285.7 526.9,285.2 527.6,284.6 528.3,284.1 529.0,283.5 529.6,282.9 530.2,282.3 530.8,281.6 531.4,280.9 531.9,280.2 532.4,279.5 532.9,278.8 533.4,278.0 533.8,277.2 533.0,276.8 532.6,277.6 532.2,278.3 531.7,279.0 531.2,279.7 530.7,280.4 530.1,281.0 529.6,281.6 529.0,282.2 528.3,282.8 527.7,283.4 527.0,283.9 526.4,284.4 525.7,284.9 524.9,285.4 524.2,285.8 523.5,286.2 522.7,286.6 521.9,286.9 521.1,287.2 520.3,287.5 519.5,287.8 518.7,288.0 517.9,288.2 517.0,288.3 516.2,288.5 515.4,288.6 514.5,288.6 513.7,288.6 512.8,288.6 512.0,288.6 511.1,288.5 510.3,288.4 509.4,288.3 508.6,288.2 507.8,288.0 506.9,287.7 506.1,287.5 505.3,287.2 504.5,286.9 503.8,286.5 503.0,286.2 502.3,285.8 501.5,285.3 500.8,284.9 500.1,284.4 499.4,283.9 498.8,283.3 498.1,282.8" class="alabe"/><polygon points="483.5,262.4 484.2,262.9 485.0,263.4 485.7,263.8 486.5,264.2 487.3,264.6 488.1,264.9 489.0,265.2 489.8,265.5 490.7,265.8 491.5,266.0 492.4,266.2 493.2,266.3 494.1,266.5 495.0,266.5 495.9,266.6 496.8,266.6 497.7,266.6 498.5,266.6 499.4,266.5 500.3,266.4 501.2,266.2 502.0,266.0 502.9,265.8 503.7,265.6 504.6,265.3 505.4,265.0 506.2,264.6 507.0,264.3 507.8,263.9 508.6,263.4 509.3,263.0 510.1,262.5 510.8,262.0 511.5,261.4 512.2,260.9 512.8,260.3 513.5,259.7 514.1,259.0 514.7,258.4 515.2,257.7 515.7,257.0 516.3,256.2 516.7,255.5 517.2,254.7 517.6,253.9 518.0,253.2 518.3,252.3 518.7,251.5 517.8,251.2 517.5,252.0 517.2,252.8 516.8,253.5 516.4,254.3 516.0,255.0 515.5,255.7 515.0,256.4 514.5,257.1 514.0,257.8 513.4,258.4 512.8,259.0 512.2,259.6 511.6,260.2 510.9,260.7 510.3,261.3 509.6,261.7 508.9,262.2 508.1,262.7 507.4,263.1 506.6,263.5 505.9,263.8 505.1,264.1 504.3,264.4 503.5,264.7 502.7,264.9 501.8,265.1 501.0,265.3 500.2,265.5 499.3,265.6 498.5,265.6 497.6,265.7 496.8,265.7 495.9,265.7 495.1,265.6 494.2,265.5 493.4,265.4 492.6,265.3 491.7,265.1 490.9,264.9 490.1,264.6 489.3,264.4 488.5,264.1 487.7,263.7 486.9,263.4 486.2,263.0 485.4,262.6 484.7,262.1 484.0,261.6" class="alabe"/><polygon points="466.8,243.4 467.6,243.8 468.4,244.1 469.2,244.5 470.1,244.8 470.9,245.0 471.8,245.3 472.6,245.5 473.5,245.6 474.4,245.8 475.3,245.9 476.1,246.0 477.0,246.0 477.9,246.0 478.8,246.0 479.7,245.9 480.5,245.8 481.4,245.7 482.3,245.5 483.2,245.3 484.0,245.1 484.9,244.8 485.7,244.5 486.5,244.2 487.3,243.9 488.1,243.5 488.9,243.1 489.7,242.6 490.4,242.2 491.1,241.7 491.8,241.1 492.5,240.6 493.2,240.0 493.9,239.4 494.5,238.8 495.1,238.1 495.6,237.4 496.2,236.7 496.7,236.0 497.2,235.3 497.7,234.5 498.1,233.8 498.5,233.0 498.9,232.2 499.2,231.4 499.5,230.5 499.8,229.7 500.1,228.9 500.3,228.0 499.4,227.8 499.2,228.6 499.0,229.4 498.7,230.2 498.4,231.0 498.0,231.8 497.7,232.6 497.3,233.3 496.9,234.1 496.4,234.8 496.0,235.5 495.5,236.2 494.9,236.9 494.4,237.5 493.8,238.1 493.2,238.7 492.6,239.3 492.0,239.9 491.3,240.4 490.6,240.9 489.9,241.4 489.2,241.9 488.5,242.3 487.7,242.7 486.9,243.0 486.2,243.4 485.4,243.7 484.6,244.0 483.8,244.2 482.9,244.4 482.1,244.6 481.3,244.8 480.4,244.9 479.6,245.0 478.7,245.1 477.9,245.1 477.0,245.1 476.2,245.0 475.3,245.0 474.5,244.9 473.7,244.7 472.8,244.6 472.0,244.4 471.2,244.2 470.4,243.9 469.6,243.6 468.8,243.3 468.0,242.9 467.2,242.6" class="alabe"/><polygon points="447.8,226.7 448.7,227.0 449.5,227.2 450.4,227.4 451.2,227.6 452.1,227.8 453.0,227.9 453.9,228.0 454.7,228.1 455.6,228.1 456.5,228.1 457.4,228.0 458.3,228.0 459.1,227.8 460.0,227.7 460.9,227.5 461.7,227.3 462.6,227.1 463.4,226.8 464.3,226.5 465.1,226.2 465.9,225.8 466.7,225.4 467.4,225.0 468.2,224.5 468.9,224.0 469.7,223.5 470.4,223.0 471.0,222.4 471.7,221.8 472.3,221.2 473.0,220.6 473.5,219.9 474.1,219.2 474.6,218.5 475.1,217.8 475.6,217.0 476.1,216.3 476.5,215.5 476.9,214.7 477.2,213.9 477.6,213.1 477.9,212.2 478.1,211.4 478.4,210.5 478.6,209.7 478.7,208.8 478.9,207.9 479.0,207.1 478.1,207.0 478.0,207.8 477.9,208.7 477.7,209.5 477.5,210.3 477.3,211.1 477.0,212.0 476.7,212.8 476.4,213.5 476.1,214.3 475.7,215.1 475.3,215.8 474.8,216.6 474.4,217.3 473.9,218.0 473.4,218.6 472.8,219.3 472.3,219.9 471.7,220.6 471.1,221.1 470.4,221.7 469.8,222.3 469.1,222.8 468.4,223.3 467.7,223.7 467.0,224.2 466.2,224.6 465.5,225.0 464.7,225.3 463.9,225.6 463.1,225.9 462.3,226.2 461.5,226.4 460.7,226.6 459.9,226.8 459.0,226.9 458.2,227.0 457.3,227.1 456.5,227.2 455.6,227.2 454.8,227.1 453.9,227.1 453.1,227.0 452.2,226.9 451.4,226.7 450.6,226.6 449.8,226.3 448.9,226.1 448.1,225.8" class="alabe"/><polygon points="426.8,212.6 427.7,212.8 428.5,212.9 429.4,213.0 430.3,213.1 431.2,213.2 432.1,213.2 433.0,213.1 433.8,213.1 434.7,213.0 435.6,212.9 436.5,212.7 437.3,212.5 438.2,212.3 439.0,212.0 439.9,211.7 440.7,211.4 441.5,211.1 442.3,210.7 443.1,210.3 443.8,209.8 444.6,209.4 445.3,208.9 446.0,208.3 446.7,207.8 447.4,207.2 448.0,206.6 448.7,206.0 449.3,205.3 449.8,204.7 450.4,204.0 450.9,203.3 451.4,202.5 451.9,201.8 452.3,201.0 452.7,200.2 453.1,199.4 453.4,198.6 453.8,197.8 454.1,196.9 454.3,196.1 454.5,195.2 454.7,194.4 454.9,193.5 455.0,192.6 455.1,191.8 455.1,190.9 455.2,190.0 455.1,189.1 454.2,189.1 454.2,190.0 454.2,190.8 454.2,191.7 454.1,192.5 454.0,193.4 453.8,194.2 453.6,195.0 453.4,195.9 453.2,196.7 452.9,197.5 452.6,198.3 452.3,199.0 451.9,199.8 451.5,200.6 451.1,201.3 450.6,202.0 450.2,202.7 449.7,203.4 449.1,204.1 448.6,204.7 448.0,205.4 447.4,206.0 446.8,206.5 446.1,207.1 445.5,207.6 444.8,208.1 444.1,208.6 443.4,209.1 442.6,209.5 441.9,209.9 441.1,210.2 440.3,210.6 439.5,210.9 438.7,211.2 437.9,211.4 437.1,211.6 436.3,211.8 435.4,212.0 434.6,212.1 433.8,212.2 432.9,212.2 432.1,212.2 431.2,212.2 430.4,212.2 429.5,212.1 428.7,212.0 427.8,211.9 427.0,211.7" class="alabe"/><polygon points="404.1,201.4 405.0,201.5 405.9,201.5 406.8,201.5 407.7,201.4 408.5,201.4 409.4,201.3 410.3,201.1 411.2,201.0 412.0,200.7 412.9,200.5 413.7,200.2 414.5,199.9 415.4,199.6 416.2,199.2 417.0,198.8 417.7,198.4 418.5,198.0 419.2,197.5 420.0,197.0 420.7,196.4 421.3,195.9 422.0,195.3 422.6,194.7 423.3,194.0 423.8,193.4 424.4,192.7 424.9,192.0 425.5,191.3 425.9,190.5 426.4,189.8 426.8,189.0 427.2,188.2 427.6,187.4 427.9,186.6 428.2,185.7 428.5,184.9 428.7,184.0 428.9,183.2 429.1,182.3 429.2,181.4 429.3,180.6 429.4,179.7 429.5,178.8 429.5,177.9 429.4,177.0 429.4,176.2 429.3,175.3 429.2,174.4 428.3,174.5 428.4,175.4 428.5,176.2 428.5,177.1 428.6,177.9 428.5,178.8 428.5,179.6 428.4,180.5 428.3,181.3 428.2,182.2 428.0,183.0 427.8,183.8 427.6,184.6 427.3,185.4 427.1,186.2 426.7,187.0 426.4,187.8 426.0,188.6 425.6,189.3 425.2,190.0 424.7,190.8 424.2,191.4 423.7,192.1 423.1,192.8 422.6,193.4 422.0,194.0 421.4,194.6 420.7,195.2 420.1,195.7 419.4,196.2 418.7,196.7 418.0,197.2 417.3,197.6 416.5,198.0 415.8,198.4 415.0,198.8 414.2,199.1 413.4,199.4 412.6,199.6 411.8,199.9 411.0,200.1 410.1,200.2 409.3,200.4 408.4,200.5 407.6,200.5 406.8,200.6 405.9,200.6 405.1,200.6 404.2,200.5" class="alabe"/><polygon points="380.2,193.3 381.1,193.2 381.9,193.1 382.8,193.0 383.7,192.8 384.6,192.6 385.4,192.4 386.3,192.2 387.1,191.9 387.9,191.6 388.7,191.2 389.5,190.8 390.3,190.4 391.1,190.0 391.8,189.5 392.6,189.0 393.3,188.5 394.0,188.0 394.6,187.4 395.3,186.8 395.9,186.2 396.5,185.5 397.1,184.9 397.7,184.2 398.2,183.5 398.7,182.7 399.1,182.0 399.6,181.2 400.0,180.4 400.4,179.6 400.7,178.8 401.1,178.0 401.3,177.1 401.6,176.3 401.8,175.4 402.0,174.6 402.2,173.7 402.3,172.8 402.4,172.0 402.4,171.1 402.5,170.2 402.5,169.3 402.4,168.4 402.3,167.5 402.2,166.7 402.1,165.8 401.9,164.9 401.7,164.1 401.5,163.2 400.6,163.5 400.8,164.3 401.0,165.1 401.2,166.0 401.3,166.8 401.4,167.6 401.5,168.5 401.6,169.3 401.6,170.2 401.5,171.0 401.5,171.9 401.4,172.7 401.3,173.6 401.1,174.4 400.9,175.2 400.7,176.1 400.5,176.9 400.2,177.7 399.9,178.5 399.6,179.2 399.2,180.0 398.8,180.8 398.4,181.5 397.9,182.2 397.4,182.9 396.9,183.6 396.4,184.3 395.8,184.9 395.3,185.5 394.7,186.1 394.0,186.7 393.4,187.3 392.7,187.8 392.0,188.3 391.3,188.8 390.6,189.2 389.9,189.6 389.1,190.0 388.4,190.4 387.6,190.7 386.8,191.0 386.0,191.3 385.2,191.6 384.3,191.8 383.5,191.9 382.7,192.1 381.8,192.2 381.0,192.3 380.1,192.3" class="alabe"/><polygon points="355.4,188.3 356.2,188.1 357.1,187.9 358.0,187.7 358.8,187.4 359.6,187.1 360.5,186.8 361.3,186.4 362.1,186.0 362.8,185.6 363.6,185.2 364.3,184.7 365.1,184.2 365.8,183.7 366.4,183.1 367.1,182.5 367.7,181.9 368.4,181.3 369.0,180.6 369.5,179.9 370.1,179.2 370.6,178.5 371.1,177.8 371.5,177.0 371.9,176.2 372.3,175.4 372.7,174.6 373.0,173.8 373.3,173.0 373.6,172.1 373.9,171.3 374.1,170.4 374.3,169.6 374.4,168.7 374.5,167.8 374.6,166.9 374.6,166.1 374.6,165.2 374.6,164.3 374.6,163.4 374.5,162.5 374.3,161.7 374.2,160.8 374.0,159.9 373.8,159.1 373.5,158.2 373.2,157.4 372.9,156.6 372.6,155.7 371.7,156.1 372.1,156.9 372.4,157.7 372.7,158.5 372.9,159.3 373.1,160.1 373.3,161.0 373.4,161.8 373.6,162.6 373.6,163.5 373.7,164.3 373.7,165.2 373.7,166.0 373.7,166.9 373.6,167.7 373.5,168.6 373.4,169.4 373.2,170.2 373.0,171.1 372.8,171.9 372.5,172.7 372.2,173.5 371.9,174.3 371.5,175.0 371.1,175.8 370.7,176.6 370.3,177.3 369.8,178.0 369.3,178.7 368.8,179.4 368.3,180.0 367.7,180.6 367.1,181.2 366.5,181.8 365.9,182.4 365.2,182.9 364.5,183.5 363.8,183.9 363.1,184.4 362.4,184.8 361.6,185.2 360.9,185.6 360.1,186.0 359.3,186.3 358.5,186.6 357.7,186.8 356.9,187.1 356.1,187.2 355.2,187.4" class="alabe"/><polygon points="330.1,186.6 331.0,186.4 331.8,186.0 332.6,185.7 333.4,185.3 334.2,184.9 335.0,184.5 335.7,184.0 336.5,183.5 337.2,183.0 337.9,182.5 338.5,181.9 339.2,181.3 339.8,180.7 340.4,180.0 341.0,179.4 341.6,178.7 342.1,178.0 342.6,177.2 343.1,176.5 343.5,175.7 343.9,174.9 344.3,174.1 344.7,173.3 345.0,172.5 345.3,171.7 345.5,170.8 345.8,170.0 346.0,169.1 346.1,168.2 346.2,167.4 346.3,166.5 346.4,165.6 346.4,164.7 346.4,163.8 346.4,162.9 346.3,162.1 346.2,161.2 346.1,160.3 345.9,159.4 345.7,158.6 345.5,157.7 345.2,156.9 344.9,156.1 344.6,155.2 344.2,154.4 343.8,153.6 343.4,152.9 342.9,152.1 342.2,152.6 342.6,153.3 343.0,154.1 343.4,154.8 343.7,155.6 344.0,156.4 344.3,157.2 344.6,158.0 344.8,158.8 345.0,159.6 345.2,160.5 345.3,161.3 345.4,162.2 345.5,163.0 345.5,163.9 345.5,164.7 345.5,165.6 345.4,166.4 345.3,167.2 345.2,168.1 345.1,168.9 344.9,169.7 344.7,170.6 344.4,171.4 344.1,172.2 343.8,173.0 343.5,173.8 343.1,174.5 342.7,175.3 342.3,176.0 341.8,176.7 341.4,177.4 340.8,178.1 340.3,178.8 339.8,179.4 339.2,180.0 338.6,180.6 337.9,181.2 337.3,181.8 336.6,182.3 335.9,182.8 335.2,183.2 334.5,183.7 333.8,184.1 333.0,184.5 332.2,184.9 331.5,185.2 330.7,185.5 329.9,185.8" class="alabe"/><polygon points="304.9,188.3 305.7,187.9 306.5,187.5 307.2,187.0 308.0,186.5 308.7,186.0 309.4,185.5 310.1,184.9 310.8,184.4 311.4,183.8 312.0,183.1 312.6,182.5 313.2,181.8 313.7,181.1 314.2,180.4 314.7,179.6 315.2,178.9 315.6,178.1 316.0,177.3 316.4,176.5 316.7,175.7 317.0,174.9 317.3,174.0 317.6,173.2 317.8,172.3 318.0,171.5 318.1,170.6 318.2,169.7 318.3,168.8 318.3,167.9 318.4,167.1 318.3,166.2 318.3,165.3 318.2,164.4 318.1,163.5 317.9,162.7 317.7,161.8 317.5,160.9 317.3,160.1 317.0,159.3 316.7,158.4 316.3,157.6 315.9,156.8 315.5,156.0 315.1,155.3 314.6,154.5 314.1,153.8 313.6,153.1 313.1,152.4 312.4,152.9 312.9,153.6 313.4,154.3 313.9,155.0 314.3,155.7 314.7,156.5 315.1,157.2 315.5,158.0 315.8,158.8 316.1,159.6 316.4,160.4 316.6,161.2 316.8,162.0 317.0,162.8 317.2,163.7 317.3,164.5 317.4,165.4 317.4,166.2 317.4,167.1 317.4,167.9 317.4,168.8 317.3,169.6 317.2,170.4 317.1,171.3 316.9,172.1 316.7,172.9 316.4,173.8 316.2,174.6 315.9,175.4 315.6,176.1 315.2,176.9 314.8,177.7 314.4,178.4 314.0,179.1 313.5,179.9 313.0,180.5 312.5,181.2 311.9,181.9 311.4,182.5 310.8,183.1 310.1,183.7 309.5,184.2 308.8,184.8 308.2,185.3 307.5,185.8 306.8,186.2 306.0,186.7 305.3,187.1 304.5,187.4" class="alabe"/><polygon points="280.1,193.2 280.8,192.7 281.5,192.2 282.2,191.6 282.9,191.1 283.6,190.5 284.2,189.9 284.8,189.2 285.4,188.5 285.9,187.9 286.5,187.2 287.0,186.4 287.5,185.7 287.9,184.9 288.3,184.1 288.7,183.3 289.1,182.5 289.4,181.7 289.7,180.9 289.9,180.0 290.2,179.2 290.4,178.3 290.5,177.4 290.7,176.6 290.8,175.7 290.8,174.8 290.9,173.9 290.9,173.0 290.8,172.2 290.8,171.3 290.7,170.4 290.5,169.5 290.4,168.7 290.2,167.8 289.9,166.9 289.7,166.1 289.4,165.3 289.0,164.4 288.7,163.6 288.3,162.8 287.9,162.1 287.4,161.3 286.9,160.6 286.4,159.8 285.9,159.1 285.3,158.4 284.7,157.8 284.1,157.1 283.5,156.5 282.9,157.2 283.5,157.8 284.1,158.4 284.6,159.0 285.2,159.7 285.7,160.4 286.2,161.1 286.6,161.8 287.1,162.5 287.5,163.3 287.8,164.0 288.2,164.8 288.5,165.6 288.8,166.4 289.0,167.2 289.3,168.0 289.5,168.8 289.6,169.7 289.8,170.5 289.9,171.4 289.9,172.2 290.0,173.1 290.0,173.9 289.9,174.8 289.9,175.6 289.8,176.5 289.6,177.3 289.5,178.1 289.3,179.0 289.1,179.8 288.8,180.6 288.5,181.4 288.2,182.2 287.9,183.0 287.5,183.7 287.1,184.5 286.7,185.2 286.2,185.9 285.7,186.6 285.2,187.3 284.7,188.0 284.1,188.6 283.5,189.2 282.9,189.8 282.3,190.4 281.7,190.9 281.0,191.5 280.3,191.9 279.6,192.4" class="alabe"/><polygon points="256.1,201.3 256.8,200.7 257.4,200.1 258.1,199.5 258.7,198.8 259.2,198.2 259.8,197.5 260.3,196.7 260.8,196.0 261.2,195.3 261.7,194.5 262.1,193.7 262.5,192.9 262.8,192.1 263.1,191.3 263.4,190.4 263.6,189.6 263.9,188.7 264.0,187.8 264.2,187.0 264.3,186.1 264.4,185.2 264.4,184.3 264.5,183.4 264.4,182.6 264.4,181.7 264.3,180.8 264.2,179.9 264.0,179.0 263.9,178.2 263.6,177.3 263.4,176.5 263.1,175.6 262.8,174.8 262.5,174.0 262.1,173.2 261.7,172.4 261.2,171.6 260.8,170.9 260.3,170.1 259.8,169.4 259.2,168.7 258.7,168.1 258.1,167.4 257.4,166.8 256.8,166.2 256.1,165.6 255.4,165.0 254.7,164.5 254.2,165.2 254.9,165.8 255.5,166.3 256.2,166.8 256.8,167.4 257.4,168.0 258.0,168.7 258.5,169.3 259.0,170.0 259.5,170.7 260.0,171.4 260.5,172.1 260.9,172.8 261.3,173.6 261.6,174.4 262.0,175.1 262.3,175.9 262.5,176.8 262.8,177.6 263.0,178.4 263.1,179.2 263.3,180.1 263.4,180.9 263.5,181.7 263.5,182.6 263.5,183.4 263.5,184.3 263.5,185.1 263.4,186.0 263.3,186.8 263.1,187.7 263.0,188.5 262.8,189.3 262.5,190.1 262.3,190.9 262.0,191.7 261.6,192.5 261.3,193.3 260.9,194.1 260.5,194.8 260.0,195.5 259.5,196.2 259.0,196.9 258.5,197.6 258.0,198.2 257.4,198.9 256.8,199.5 256.2,200.0 255.5,200.6" class="alabe"/><polygon points="233.4,212.5 234.0,211.8 234.6,211.1 235.1,210.4 235.6,209.7 236.1,208.9 236.5,208.2 237.0,207.4 237.4,206.6 237.7,205.8 238.0,205.0 238.3,204.2 238.6,203.3 238.8,202.5 239.0,201.6 239.2,200.7 239.3,199.9 239.5,199.0 239.5,198.1 239.6,197.2 239.6,196.3 239.5,195.4 239.5,194.6 239.4,193.7 239.2,192.8 239.1,191.9 238.9,191.1 238.6,190.2 238.4,189.4 238.1,188.5 237.8,187.7 237.4,186.9 237.0,186.1 236.6,185.3 236.1,184.6 235.7,183.8 235.2,183.1 234.6,182.4 234.1,181.7 233.5,181.0 232.9,180.4 232.3,179.8 231.6,179.2 230.9,178.6 230.2,178.1 229.5,177.6 228.8,177.1 228.0,176.6 227.2,176.2 226.8,177.0 227.6,177.4 228.3,177.8 229.0,178.3 229.7,178.8 230.4,179.3 231.0,179.9 231.6,180.4 232.2,181.0 232.8,181.7 233.4,182.3 233.9,183.0 234.4,183.6 234.9,184.3 235.4,185.1 235.8,185.8 236.2,186.5 236.6,187.3 236.9,188.1 237.2,188.9 237.5,189.7 237.8,190.5 238.0,191.3 238.2,192.1 238.3,193.0 238.5,193.8 238.6,194.6 238.6,195.5 238.6,196.3 238.6,197.2 238.6,198.0 238.5,198.9 238.4,199.7 238.3,200.6 238.2,201.4 238.0,202.2 237.7,203.1 237.5,203.9 237.2,204.7 236.9,205.5 236.5,206.2 236.2,207.0 235.8,207.7 235.3,208.5 234.9,209.2 234.4,209.9 233.9,210.6 233.3,211.2 232.8,211.9" class="alabe"/><polygon points="212.4,226.5 212.9,225.8 213.4,225.0 213.8,224.3 214.2,223.5 214.6,222.7 214.9,221.9 215.2,221.0 215.5,220.2 215.8,219.3 216.0,218.5 216.2,217.6 216.3,216.8 216.5,215.9 216.5,215.0 216.6,214.1 216.6,213.2 216.6,212.3 216.6,211.5 216.5,210.6 216.4,209.7 216.2,208.8 216.0,208.0 215.8,207.1 215.6,206.3 215.3,205.4 215.0,204.6 214.6,203.8 214.3,203.0 213.9,202.2 213.4,201.4 213.0,200.7 212.5,199.9 212.0,199.2 211.4,198.5 210.9,197.8 210.3,197.2 209.7,196.5 209.0,195.9 208.4,195.3 207.7,194.8 207.0,194.3 206.2,193.7 205.5,193.3 204.7,192.8 203.9,192.4 203.2,192.0 202.3,191.7 201.5,191.3 201.2,192.2 202.0,192.5 202.8,192.8 203.5,193.2 204.3,193.6 205.0,194.0 205.7,194.5 206.4,195.0 207.1,195.5 207.8,196.0 208.4,196.6 209.0,197.2 209.6,197.8 210.2,198.4 210.7,199.1 211.3,199.7 211.7,200.4 212.2,201.1 212.7,201.9 213.1,202.6 213.5,203.4 213.8,204.1 214.1,204.9 214.4,205.7 214.7,206.5 214.9,207.3 215.1,208.2 215.3,209.0 215.5,209.8 215.6,210.7 215.6,211.5 215.7,212.4 215.7,213.2 215.7,214.1 215.6,214.9 215.5,215.8 215.4,216.6 215.3,217.4 215.1,218.3 214.9,219.1 214.6,219.9 214.4,220.7 214.1,221.5 213.7,222.3 213.4,223.1 213.0,223.8 212.6,224.6 212.1,225.3 211.6,226.0" class="alabe"/><polygon points="193.4,243.2 193.8,242.4 194.1,241.6 194.5,240.8 194.8,239.9 195.0,239.1 195.3,238.2 195.5,237.4 195.6,236.5 195.8,235.6 195.9,234.7 196.0,233.9 196.0,233.0 196.0,232.1 196.0,231.2 195.9,230.3 195.8,229.5 195.7,228.6 195.5,227.7 195.3,226.8 195.1,226.0 194.8,225.1 194.5,224.3 194.2,223.5 193.9,222.7 193.5,221.9 193.1,221.1 192.6,220.3 192.2,219.6 191.7,218.9 191.1,218.2 190.6,217.5 190.0,216.8 189.4,216.1 188.8,215.5 188.1,214.9 187.4,214.4 186.7,213.8 186.0,213.3 185.3,212.8 184.5,212.3 183.8,211.9 183.0,211.5 182.2,211.1 181.4,210.8 180.5,210.5 179.7,210.2 178.9,209.9 178.0,209.7 177.8,210.6 178.6,210.8 179.4,211.0 180.2,211.3 181.0,211.6 181.8,212.0 182.6,212.3 183.3,212.7 184.1,213.1 184.8,213.6 185.5,214.0 186.2,214.5 186.9,215.1 187.5,215.6 188.1,216.2 188.7,216.8 189.3,217.4 189.9,218.0 190.4,218.7 190.9,219.4 191.4,220.1 191.9,220.8 192.3,221.5 192.7,222.3 193.0,223.1 193.4,223.8 193.7,224.6 194.0,225.4 194.2,226.2 194.4,227.1 194.6,227.9 194.8,228.7 194.9,229.6 195.0,230.4 195.1,231.3 195.1,232.1 195.1,233.0 195.0,233.8 195.0,234.7 194.9,235.5 194.7,236.3 194.6,237.2 194.4,238.0 194.2,238.8 193.9,239.6 193.6,240.4 193.3,241.2 192.9,242.0 192.6,242.8" class="alabe"/><polygon points="176.7,262.2 177.0,261.3 177.2,260.5 177.4,259.6 177.6,258.8 177.8,257.9 177.9,257.0 178.0,256.1 178.1,255.3 178.1,254.4 178.1,253.5 178.0,252.6 178.0,251.7 177.8,250.9 177.7,250.0 177.5,249.1 177.3,248.3 177.1,247.4 176.8,246.6 176.5,245.7 176.2,244.9 175.8,244.1 175.4,243.3 175.0,242.6 174.5,241.8 174.0,241.1 173.5,240.3 173.0,239.6 172.4,239.0 171.8,238.3 171.2,237.7 170.6,237.0 169.9,236.5 169.2,235.9 168.5,235.4 167.8,234.9 167.0,234.4 166.3,233.9 165.5,233.5 164.7,233.1 163.9,232.8 163.1,232.4 162.2,232.1 161.4,231.9 160.5,231.6 159.7,231.4 158.8,231.3 157.9,231.1 157.1,231.0 157.0,231.9 157.8,232.0 158.7,232.1 159.5,232.3 160.3,232.5 161.1,232.7 162.0,233.0 162.8,233.3 163.5,233.6 164.3,233.9 165.1,234.3 165.8,234.7 166.6,235.2 167.3,235.6 168.0,236.1 168.6,236.6 169.3,237.2 169.9,237.7 170.6,238.3 171.1,238.9 171.7,239.6 172.3,240.2 172.8,240.9 173.3,241.6 173.7,242.3 174.2,243.0 174.6,243.8 175.0,244.5 175.3,245.3 175.6,246.1 175.9,246.9 176.2,247.7 176.4,248.5 176.6,249.3 176.8,250.1 176.9,251.0 177.0,251.8 177.1,252.7 177.2,253.5 177.2,254.4 177.1,255.2 177.1,256.1 177.0,256.9 176.9,257.8 176.7,258.6 176.6,259.4 176.3,260.2 176.1,261.1 175.8,261.9" class="alabe"/><polygon points="162.6,283.2 162.8,282.3 162.9,281.5 163.0,280.6 163.1,279.7 163.2,278.8 163.2,277.9 163.1,277.0 163.1,276.2 163.0,275.3 162.9,274.4 162.7,273.5 162.5,272.7 162.3,271.8 162.0,271.0 161.7,270.1 161.4,269.3 161.1,268.5 160.7,267.7 160.3,266.9 159.8,266.2 159.4,265.4 158.9,264.7 158.3,264.0 157.8,263.3 157.2,262.6 156.6,262.0 156.0,261.3 155.3,260.7 154.7,260.2 154.0,259.6 153.3,259.1 152.5,258.6 151.8,258.1 151.0,257.7 150.2,257.3 149.4,256.9 148.6,256.6 147.8,256.2 146.9,255.9 146.1,255.7 145.2,255.5 144.4,255.3 143.5,255.1 142.6,255.0 141.8,254.9 140.9,254.9 140.0,254.8 139.1,254.9 139.1,255.8 140.0,255.8 140.8,255.8 141.7,255.8 142.5,255.9 143.4,256.0 144.2,256.2 145.0,256.4 145.9,256.6 146.7,256.8 147.5,257.1 148.3,257.4 149.0,257.7 149.8,258.1 150.6,258.5 151.3,258.9 152.0,259.4 152.7,259.8 153.4,260.3 154.1,260.9 154.7,261.4 155.4,262.0 156.0,262.6 156.5,263.2 157.1,263.9 157.6,264.5 158.1,265.2 158.6,265.9 159.1,266.6 159.5,267.4 159.9,268.1 160.2,268.9 160.6,269.7 160.9,270.5 161.2,271.3 161.4,272.1 161.6,272.9 161.8,273.7 162.0,274.6 162.1,275.4 162.2,276.2 162.2,277.1 162.2,277.9 162.2,278.8 162.2,279.6 162.1,280.5 162.0,281.3 161.9,282.2 161.7,283.0" class="alabe"/><polygon points="151.4,305.9 151.5,305.0 151.5,304.1 151.5,303.2 151.4,302.3 151.4,301.5 151.3,300.6 151.1,299.7 151.0,298.8 150.7,298.0 150.5,297.1 150.2,296.3 149.9,295.5 149.6,294.6 149.2,293.8 148.8,293.0 148.4,292.3 148.0,291.5 147.5,290.8 147.0,290.0 146.4,289.3 145.9,288.7 145.3,288.0 144.7,287.4 144.0,286.7 143.4,286.2 142.7,285.6 142.0,285.1 141.3,284.5 140.5,284.1 139.8,283.6 139.0,283.2 138.2,282.8 137.4,282.4 136.6,282.1 135.7,281.8 134.9,281.5 134.0,281.3 133.2,281.1 132.3,280.9 131.4,280.8 130.6,280.7 129.7,280.6 128.8,280.5 127.9,280.5 127.0,280.6 126.2,280.6 125.3,280.7 124.4,280.8 124.5,281.7 125.4,281.6 126.2,281.5 127.1,281.5 127.9,281.4 128.8,281.5 129.6,281.5 130.5,281.6 131.3,281.7 132.2,281.8 133.0,282.0 133.8,282.2 134.6,282.4 135.4,282.7 136.2,282.9 137.0,283.3 137.8,283.6 138.6,284.0 139.3,284.4 140.0,284.8 140.8,285.3 141.4,285.8 142.1,286.3 142.8,286.9 143.4,287.4 144.0,288.0 144.6,288.6 145.2,289.3 145.7,289.9 146.2,290.6 146.7,291.3 147.2,292.0 147.6,292.7 148.0,293.5 148.4,294.2 148.8,295.0 149.1,295.8 149.4,296.6 149.6,297.4 149.9,298.2 150.1,299.0 150.2,299.9 150.4,300.7 150.5,301.6 150.5,302.4 150.6,303.2 150.6,304.1 150.6,304.9 150.5,305.8" class="alabe"/><polygon points="143.3,329.8 143.2,328.9 143.1,328.1 143.0,327.2 142.8,326.3 142.6,325.4 142.4,324.6 142.2,323.7 141.9,322.9 141.6,322.1 141.2,321.3 140.8,320.5 140.4,319.7 140.0,318.9 139.5,318.2 139.0,317.4 138.5,316.7 138.0,316.0 137.4,315.4 136.8,314.7 136.2,314.1 135.5,313.5 134.9,312.9 134.2,312.3 133.5,311.8 132.7,311.3 132.0,310.9 131.2,310.4 130.4,310.0 129.6,309.6 128.8,309.3 128.0,308.9 127.1,308.7 126.3,308.4 125.4,308.2 124.6,308.0 123.7,307.8 122.8,307.7 122.0,307.6 121.1,307.6 120.2,307.5 119.3,307.5 118.4,307.6 117.5,307.7 116.7,307.8 115.8,307.9 114.9,308.1 114.1,308.3 113.2,308.5 113.5,309.4 114.3,309.2 115.1,309.0 116.0,308.8 116.8,308.7 117.6,308.6 118.5,308.5 119.3,308.4 120.2,308.4 121.0,308.5 121.9,308.5 122.7,308.6 123.6,308.7 124.4,308.9 125.2,309.1 126.1,309.3 126.9,309.5 127.7,309.8 128.5,310.1 129.2,310.4 130.0,310.8 130.8,311.2 131.5,311.6 132.2,312.1 132.9,312.6 133.6,313.1 134.3,313.6 134.9,314.2 135.5,314.7 136.1,315.3 136.7,316.0 137.3,316.6 137.8,317.3 138.3,318.0 138.8,318.7 139.2,319.4 139.6,320.1 140.0,320.9 140.4,321.6 140.7,322.4 141.0,323.2 141.3,324.0 141.6,324.8 141.8,325.7 141.9,326.5 142.1,327.3 142.2,328.2 142.3,329.0 142.3,329.9" class="alabe"/><polygon points="138.3,354.6 138.1,353.8 137.9,352.9 137.7,352.0 137.4,351.2 137.1,350.4 136.8,349.5 136.4,348.7 136.0,347.9 135.6,347.2 135.2,346.4 134.7,345.7 134.2,344.9 133.7,344.2 133.1,343.6 132.5,342.9 131.9,342.3 131.3,341.6 130.6,341.0 129.9,340.5 129.2,339.9 128.5,339.4 127.8,338.9 127.0,338.5 126.2,338.1 125.4,337.7 124.6,337.3 123.8,337.0 123.0,336.7 122.1,336.4 121.3,336.1 120.4,335.9 119.6,335.7 118.7,335.6 117.8,335.5 116.9,335.4 116.1,335.4 115.2,335.4 114.3,335.4 113.4,335.4 112.5,335.5 111.7,335.7 110.8,335.8 109.9,336.0 109.1,336.2 108.2,336.5 107.4,336.8 106.6,337.1 105.7,337.4 106.1,338.3 106.9,337.9 107.7,337.6 108.5,337.3 109.3,337.1 110.1,336.9 111.0,336.7 111.8,336.6 112.6,336.4 113.5,336.4 114.3,336.3 115.2,336.3 116.0,336.3 116.9,336.3 117.7,336.4 118.6,336.5 119.4,336.6 120.2,336.8 121.1,337.0 121.9,337.2 122.7,337.5 123.5,337.8 124.3,338.1 125.0,338.5 125.8,338.9 126.6,339.3 127.3,339.7 128.0,340.2 128.7,340.7 129.4,341.2 130.0,341.7 130.6,342.3 131.2,342.9 131.8,343.5 132.4,344.1 132.9,344.8 133.5,345.5 133.9,346.2 134.4,346.9 134.8,347.6 135.2,348.4 135.6,349.1 136.0,349.9 136.3,350.7 136.6,351.5 136.8,352.3 137.1,353.1 137.2,353.9 137.4,354.8" class="alabe"/><polygon points="136.6,379.9 136.4,379.0 136.0,378.2 135.7,377.4 135.3,376.6 134.9,375.8 134.5,375.0 134.0,374.3 133.5,373.5 133.0,372.8 132.5,372.1 131.9,371.5 131.3,370.8 130.7,370.2 130.0,369.6 129.4,369.0 128.7,368.4 128.0,367.9 127.2,367.4 126.5,366.9 125.7,366.5 124.9,366.1 124.1,365.7 123.3,365.3 122.5,365.0 121.7,364.7 120.8,364.5 120.0,364.2 119.1,364.0 118.2,363.9 117.4,363.8 116.5,363.7 115.6,363.6 114.7,363.6 113.8,363.6 112.9,363.6 112.1,363.7 111.2,363.8 110.3,363.9 109.4,364.1 108.6,364.3 107.7,364.5 106.9,364.8 106.1,365.1 105.2,365.4 104.4,365.8 103.6,366.2 102.9,366.6 102.1,367.1 102.6,367.8 103.3,367.4 104.1,367.0 104.8,366.6 105.6,366.3 106.4,366.0 107.2,365.7 108.0,365.4 108.8,365.2 109.6,365.0 110.5,364.8 111.3,364.7 112.2,364.6 113.0,364.5 113.9,364.5 114.7,364.5 115.6,364.5 116.4,364.6 117.2,364.7 118.1,364.8 118.9,364.9 119.7,365.1 120.6,365.3 121.4,365.6 122.2,365.9 123.0,366.2 123.8,366.5 124.5,366.9 125.3,367.3 126.0,367.7 126.7,368.2 127.4,368.6 128.1,369.2 128.8,369.7 129.4,370.2 130.0,370.8 130.6,371.4 131.2,372.1 131.8,372.7 132.3,373.4 132.8,374.1 133.2,374.8 133.7,375.5 134.1,376.2 134.5,377.0 134.9,377.8 135.2,378.5 135.5,379.3 135.8,380.1" class="alabe"/><polygon points="138.3,405.1 137.9,404.3 137.5,403.5 137.0,402.8 136.5,402.0 136.0,401.3 135.5,400.6 134.9,399.9 134.4,399.2 133.8,398.6 133.1,398.0 132.5,397.4 131.8,396.8 131.1,396.3 130.4,395.8 129.6,395.3 128.9,394.8 128.1,394.4 127.3,394.0 126.5,393.6 125.7,393.3 124.9,393.0 124.0,392.7 123.2,392.4 122.3,392.2 121.5,392.0 120.6,391.9 119.7,391.8 118.8,391.7 117.9,391.7 117.1,391.6 116.2,391.7 115.3,391.7 114.4,391.8 113.5,391.9 112.7,392.1 111.8,392.3 110.9,392.5 110.1,392.7 109.3,393.0 108.4,393.3 107.6,393.7 106.8,394.1 106.0,394.5 105.3,394.9 104.5,395.4 103.8,395.9 103.1,396.4 102.4,396.9 102.9,397.6 103.6,397.1 104.3,396.6 105.0,396.1 105.7,395.7 106.5,395.3 107.2,394.9 108.0,394.5 108.8,394.2 109.6,393.9 110.4,393.6 111.2,393.4 112.0,393.2 112.8,393.0 113.7,392.8 114.5,392.7 115.4,392.6 116.2,392.6 117.1,392.6 117.9,392.6 118.8,392.6 119.6,392.7 120.4,392.8 121.3,392.9 122.1,393.1 122.9,393.3 123.8,393.6 124.6,393.8 125.4,394.1 126.1,394.4 126.9,394.8 127.7,395.2 128.4,395.6 129.1,396.0 129.9,396.5 130.5,397.0 131.2,397.5 131.9,398.1 132.5,398.6 133.1,399.2 133.7,399.9 134.2,400.5 134.8,401.2 135.3,401.8 135.8,402.5 136.2,403.2 136.7,404.0 137.1,404.7 137.4,405.5" class="alabe"/><polygon points="143.2,429.9 142.7,429.2 142.2,428.5 141.6,427.8 141.1,427.1 140.5,426.4 139.9,425.8 139.2,425.2 138.5,424.6 137.9,424.1 137.2,423.5 136.4,423.0 135.7,422.5 134.9,422.1 134.1,421.7 133.3,421.3 132.5,420.9 131.7,420.6 130.9,420.3 130.0,420.1 129.2,419.8 128.3,419.6 127.4,419.5 126.6,419.3 125.7,419.2 124.8,419.2 123.9,419.1 123.0,419.1 122.2,419.2 121.3,419.2 120.4,419.3 119.5,419.5 118.7,419.6 117.8,419.8 116.9,420.1 116.1,420.3 115.3,420.6 114.4,421.0 113.6,421.3 112.8,421.7 112.1,422.1 111.3,422.6 110.6,423.1 109.8,423.6 109.1,424.1 108.4,424.7 107.8,425.3 107.1,425.9 106.5,426.5 107.2,427.1 107.8,426.5 108.4,425.9 109.0,425.4 109.7,424.8 110.4,424.3 111.1,423.8 111.8,423.4 112.5,422.9 113.3,422.5 114.0,422.2 114.8,421.8 115.6,421.5 116.4,421.2 117.2,421.0 118.0,420.7 118.8,420.5 119.7,420.4 120.5,420.2 121.4,420.1 122.2,420.1 123.1,420.0 123.9,420.0 124.8,420.1 125.6,420.1 126.5,420.2 127.3,420.4 128.1,420.5 129.0,420.7 129.8,420.9 130.6,421.2 131.4,421.5 132.2,421.8 133.0,422.1 133.7,422.5 134.5,422.9 135.2,423.3 135.9,423.8 136.6,424.3 137.3,424.8 138.0,425.3 138.6,425.9 139.2,426.5 139.8,427.1 140.4,427.7 140.9,428.3 141.5,429.0 141.9,429.7 142.4,430.4" class="alabe"/><polygon points="151.3,453.9 150.7,453.2 150.1,452.6 149.5,451.9 148.8,451.3 148.2,450.8 147.5,450.2 146.7,449.7 146.0,449.2 145.3,448.8 144.5,448.3 143.7,447.9 142.9,447.5 142.1,447.2 141.3,446.9 140.4,446.6 139.6,446.4 138.7,446.1 137.8,446.0 137.0,445.8 136.1,445.7 135.2,445.6 134.3,445.6 133.4,445.5 132.6,445.6 131.7,445.6 130.8,445.7 129.9,445.8 129.0,446.0 128.2,446.1 127.3,446.4 126.5,446.6 125.6,446.9 124.8,447.2 124.0,447.5 123.2,447.9 122.4,448.3 121.6,448.8 120.9,449.2 120.1,449.7 119.4,450.2 118.7,450.8 118.1,451.3 117.4,451.9 116.8,452.6 116.2,453.2 115.6,453.9 115.0,454.6 114.5,455.3 115.2,455.8 115.8,455.1 116.3,454.5 116.8,453.8 117.4,453.2 118.0,452.6 118.7,452.0 119.3,451.5 120.0,451.0 120.7,450.5 121.4,450.0 122.1,449.5 122.8,449.1 123.6,448.7 124.4,448.4 125.1,448.0 125.9,447.7 126.8,447.5 127.6,447.2 128.4,447.0 129.2,446.9 130.1,446.7 130.9,446.6 131.7,446.5 132.6,446.5 133.4,446.5 134.3,446.5 135.1,446.5 136.0,446.6 136.8,446.7 137.7,446.9 138.5,447.0 139.3,447.2 140.1,447.5 140.9,447.7 141.7,448.0 142.5,448.4 143.3,448.7 144.1,449.1 144.8,449.5 145.5,450.0 146.2,450.5 146.9,451.0 147.6,451.5 148.2,452.0 148.9,452.6 149.5,453.2 150.0,453.8 150.6,454.5" class="alabe"/><polygon points="162.5,476.6 161.8,476.0 161.1,475.4 160.4,474.9 159.7,474.4 158.9,473.9 158.2,473.5 157.4,473.0 156.6,472.6 155.8,472.3 155.0,472.0 154.2,471.7 153.3,471.4 152.5,471.2 151.6,471.0 150.7,470.8 149.9,470.7 149.0,470.5 148.1,470.5 147.2,470.4 146.3,470.4 145.4,470.5 144.6,470.5 143.7,470.6 142.8,470.8 141.9,470.9 141.1,471.1 140.2,471.4 139.4,471.6 138.5,471.9 137.7,472.2 136.9,472.6 136.1,473.0 135.3,473.4 134.6,473.9 133.8,474.3 133.1,474.8 132.4,475.4 131.7,475.9 131.0,476.5 130.4,477.1 129.8,477.7 129.2,478.4 128.6,479.1 128.1,479.8 127.6,480.5 127.1,481.2 126.6,482.0 126.2,482.8 127.0,483.2 127.4,482.4 127.8,481.7 128.3,481.0 128.8,480.3 129.3,479.6 129.9,479.0 130.4,478.4 131.0,477.8 131.7,477.2 132.3,476.6 133.0,476.1 133.6,475.6 134.3,475.1 135.1,474.6 135.8,474.2 136.5,473.8 137.3,473.4 138.1,473.1 138.9,472.8 139.7,472.5 140.5,472.2 141.3,472.0 142.1,471.8 143.0,471.7 143.8,471.5 144.6,471.4 145.5,471.4 146.3,471.4 147.2,471.4 148.0,471.4 148.9,471.5 149.7,471.6 150.6,471.7 151.4,471.8 152.2,472.0 153.1,472.3 153.9,472.5 154.7,472.8 155.5,473.1 156.2,473.5 157.0,473.8 157.7,474.2 158.5,474.7 159.2,475.1 159.9,475.6 160.6,476.1 161.2,476.7 161.9,477.2" class="alabe"/><polygon points="176.5,497.6 175.8,497.1 175.0,496.6 174.3,496.2 173.5,495.8 172.7,495.4 171.9,495.1 171.0,494.8 170.2,494.5 169.3,494.2 168.5,494.0 167.6,493.8 166.8,493.7 165.9,493.5 165.0,493.5 164.1,493.4 163.2,493.4 162.3,493.4 161.5,493.4 160.6,493.5 159.7,493.6 158.8,493.8 158.0,494.0 157.1,494.2 156.3,494.4 155.4,494.7 154.6,495.0 153.8,495.4 153.0,495.7 152.2,496.1 151.4,496.6 150.7,497.0 149.9,497.5 149.2,498.0 148.5,498.6 147.8,499.1 147.2,499.7 146.5,500.3 145.9,501.0 145.3,501.6 144.8,502.3 144.3,503.0 143.7,503.8 143.3,504.5 142.8,505.3 142.4,506.1 142.0,506.8 141.7,507.7 141.3,508.5 142.2,508.8 142.5,508.0 142.8,507.2 143.2,506.5 143.6,505.7 144.0,505.0 144.5,504.3 145.0,503.6 145.5,502.9 146.0,502.2 146.6,501.6 147.2,501.0 147.8,500.4 148.4,499.8 149.1,499.3 149.7,498.7 150.4,498.3 151.1,497.8 151.9,497.3 152.6,496.9 153.4,496.5 154.1,496.2 154.9,495.9 155.7,495.6 156.5,495.3 157.3,495.1 158.2,494.9 159.0,494.7 159.8,494.5 160.7,494.4 161.5,494.4 162.4,494.3 163.2,494.3 164.1,494.3 164.9,494.4 165.8,494.5 166.6,494.6 167.4,494.7 168.3,494.9 169.1,495.1 169.9,495.4 170.7,495.6 171.5,495.9 172.3,496.3 173.1,496.6 173.8,497.0 174.6,497.4 175.3,497.9 176.0,498.4" class="alabe"/><polygon points="193.2,516.6 192.4,516.2 191.6,515.9 190.8,515.5 189.9,515.2 189.1,515.0 188.2,514.7 187.4,514.5 186.5,514.4 185.6,514.2 184.7,514.1 183.9,514.0 183.0,514.0 182.1,514.0 181.2,514.0 180.3,514.1 179.5,514.2 178.6,514.3 177.7,514.5 176.8,514.7 176.0,514.9 175.1,515.2 174.3,515.5 173.5,515.8 172.7,516.1 171.9,516.5 171.1,516.9 170.3,517.4 169.6,517.8 168.9,518.3 168.2,518.9 167.5,519.4 166.8,520.0 166.1,520.6 165.5,521.2 164.9,521.9 164.4,522.6 163.8,523.3 163.3,524.0 162.8,524.7 162.3,525.5 161.9,526.2 161.5,527.0 161.1,527.8 160.8,528.6 160.5,529.5 160.2,530.3 159.9,531.1 159.7,532.0 160.6,532.2 160.8,531.4 161.0,530.6 161.3,529.8 161.6,529.0 162.0,528.2 162.3,527.4 162.7,526.7 163.1,525.9 163.6,525.2 164.0,524.5 164.5,523.8 165.1,523.1 165.6,522.5 166.2,521.9 166.8,521.3 167.4,520.7 168.0,520.1 168.7,519.6 169.4,519.1 170.1,518.6 170.8,518.1 171.5,517.7 172.3,517.3 173.1,517.0 173.8,516.6 174.6,516.3 175.4,516.0 176.2,515.8 177.1,515.6 177.9,515.4 178.7,515.2 179.6,515.1 180.4,515.0 181.3,514.9 182.1,514.9 183.0,514.9 183.8,515.0 184.7,515.0 185.5,515.1 186.3,515.3 187.2,515.4 188.0,515.6 188.8,515.8 189.6,516.1 190.4,516.4 191.2,516.7 192.0,517.1 192.8,517.4" class="alabe"/><polygon points="212.2,533.3 211.3,533.0 210.5,532.8 209.6,532.6 208.8,532.4 207.9,532.2 207.0,532.1 206.1,532.0 205.3,531.9 204.4,531.9 203.5,531.9 202.6,532.0 201.7,532.0 200.9,532.2 200.0,532.3 199.1,532.5 198.3,532.7 197.4,532.9 196.6,533.2 195.7,533.5 194.9,533.8 194.1,534.2 193.3,534.6 192.6,535.0 191.8,535.5 191.1,536.0 190.3,536.5 189.6,537.0 189.0,537.6 188.3,538.2 187.7,538.8 187.0,539.4 186.5,540.1 185.9,540.8 185.4,541.5 184.9,542.2 184.4,543.0 183.9,543.7 183.5,544.5 183.1,545.3 182.8,546.1 182.4,546.9 182.1,547.8 181.9,548.6 181.6,549.5 181.4,550.3 181.3,551.2 181.1,552.1 181.0,552.9 181.9,553.0 182.0,552.2 182.1,551.3 182.3,550.5 182.5,549.7 182.7,548.9 183.0,548.0 183.3,547.2 183.6,546.5 183.9,545.7 184.3,544.9 184.7,544.2 185.2,543.4 185.6,542.7 186.1,542.0 186.6,541.4 187.2,540.7 187.7,540.1 188.3,539.4 188.9,538.9 189.6,538.3 190.2,537.7 190.9,537.2 191.6,536.7 192.3,536.3 193.0,535.8 193.8,535.4 194.5,535.0 195.3,534.7 196.1,534.4 196.9,534.1 197.7,533.8 198.5,533.6 199.3,533.4 200.1,533.2 201.0,533.1 201.8,533.0 202.7,532.9 203.5,532.8 204.4,532.8 205.2,532.9 206.1,532.9 206.9,533.0 207.8,533.1 208.6,533.3 209.4,533.4 210.2,533.7 211.1,533.9 211.9,534.2" class="alabe"/><polygon points="233.2,547.4 232.3,547.2 231.5,547.1 230.6,547.0 229.7,546.9 228.8,546.8 227.9,546.8 227.0,546.9 226.2,546.9 225.3,547.0 224.4,547.1 223.5,547.3 222.7,547.5 221.8,547.7 221.0,548.0 220.1,548.3 219.3,548.6 218.5,548.9 217.7,549.3 216.9,549.7 216.2,550.2 215.4,550.6 214.7,551.1 214.0,551.7 213.3,552.2 212.6,552.8 212.0,553.4 211.3,554.0 210.7,554.7 210.2,555.3 209.6,556.0 209.1,556.7 208.6,557.5 208.1,558.2 207.7,559.0 207.3,559.8 206.9,560.6 206.6,561.4 206.2,562.2 205.9,563.1 205.7,563.9 205.5,564.8 205.3,565.6 205.1,566.5 205.0,567.4 204.9,568.2 204.9,569.1 204.8,570.0 204.9,570.9 205.8,570.9 205.8,570.0 205.8,569.2 205.8,568.3 205.9,567.5 206.0,566.6 206.2,565.8 206.4,565.0 206.6,564.1 206.8,563.3 207.1,562.5 207.4,561.7 207.7,561.0 208.1,560.2 208.5,559.4 208.9,558.7 209.4,558.0 209.8,557.3 210.3,556.6 210.9,555.9 211.4,555.3 212.0,554.6 212.6,554.0 213.2,553.5 213.9,552.9 214.5,552.4 215.2,551.9 215.9,551.4 216.6,550.9 217.4,550.5 218.1,550.1 218.9,549.8 219.7,549.4 220.5,549.1 221.3,548.8 222.1,548.6 222.9,548.4 223.7,548.2 224.6,548.0 225.4,547.9 226.2,547.8 227.1,547.8 227.9,547.8 228.8,547.8 229.6,547.8 230.5,547.9 231.3,548.0 232.2,548.1 233.0,548.3" class="alabe"/><polygon points="255.9,558.6 255.0,558.5 254.1,558.5 253.2,558.5 252.3,558.6 251.5,558.6 250.6,558.7 249.7,558.9 248.8,559.0 248.0,559.3 247.1,559.5 246.3,559.8 245.5,560.1 244.6,560.4 243.8,560.8 243.0,561.2 242.3,561.6 241.5,562.0 240.8,562.5 240.0,563.0 239.3,563.6 238.7,564.1 238.0,564.7 237.4,565.3 236.7,566.0 236.2,566.6 235.6,567.3 235.1,568.0 234.5,568.7 234.1,569.5 233.6,570.2 233.2,571.0 232.8,571.8 232.4,572.6 232.1,573.4 231.8,574.3 231.5,575.1 231.3,576.0 231.1,576.8 230.9,577.7 230.8,578.6 230.7,579.4 230.6,580.3 230.5,581.2 230.5,582.1 230.6,583.0 230.6,583.8 230.7,584.7 230.8,585.6 231.7,585.5 231.6,584.6 231.5,583.8 231.5,582.9 231.4,582.1 231.5,581.2 231.5,580.4 231.6,579.5 231.7,578.7 231.8,577.8 232.0,577.0 232.2,576.2 232.4,575.4 232.7,574.6 232.9,573.8 233.3,573.0 233.6,572.2 234.0,571.4 234.4,570.7 234.8,570.0 235.3,569.2 235.8,568.6 236.3,567.9 236.9,567.2 237.4,566.6 238.0,566.0 238.6,565.4 239.3,564.8 239.9,564.3 240.6,563.8 241.3,563.3 242.0,562.8 242.7,562.4 243.5,562.0 244.2,561.6 245.0,561.2 245.8,560.9 246.6,560.6 247.4,560.4 248.2,560.1 249.0,559.9 249.9,559.8 250.7,559.6 251.6,559.5 252.4,559.5 253.2,559.4 254.1,559.4 254.9,559.4 255.8,559.5" class="alabe"/><polygon points="279.8,566.7 278.9,566.8 278.1,566.9 277.2,567.0 276.3,567.2 275.4,567.4 274.6,567.6 273.7,567.8 272.9,568.1 272.1,568.4 271.3,568.8 270.5,569.2 269.7,569.6 268.9,570.0 268.2,570.5 267.4,571.0 266.7,571.5 266.0,572.0 265.4,572.6 264.7,573.2 264.1,573.8 263.5,574.5 262.9,575.1 262.3,575.8 261.8,576.5 261.3,577.3 260.9,578.0 260.4,578.8 260.0,579.6 259.6,580.4 259.3,581.2 258.9,582.0 258.7,582.9 258.4,583.7 258.2,584.6 258.0,585.4 257.8,586.3 257.7,587.2 257.6,588.0 257.6,588.9 257.5,589.8 257.5,590.7 257.6,591.6 257.7,592.5 257.8,593.3 257.9,594.2 258.1,595.1 258.3,595.9 258.5,596.8 259.4,596.5 259.2,595.7 259.0,594.9 258.8,594.0 258.7,593.2 258.6,592.4 258.5,591.5 258.4,590.7 258.4,589.8 258.5,589.0 258.5,588.1 258.6,587.3 258.7,586.4 258.9,585.6 259.1,584.8 259.3,583.9 259.5,583.1 259.8,582.3 260.1,581.5 260.4,580.8 260.8,580.0 261.2,579.2 261.6,578.5 262.1,577.8 262.6,577.1 263.1,576.4 263.6,575.7 264.2,575.1 264.7,574.5 265.3,573.9 266.0,573.3 266.6,572.7 267.3,572.2 268.0,571.7 268.7,571.2 269.4,570.8 270.1,570.4 270.9,570.0 271.6,569.6 272.4,569.3 273.2,569.0 274.0,568.7 274.8,568.4 275.7,568.2 276.5,568.1 277.3,567.9 278.2,567.8 279.0,567.7 279.9,567.7" class="alabe"/><polygon points="304.6,571.7 303.8,571.9 302.9,572.1 302.0,572.3 301.2,572.6 300.4,572.9 299.5,573.2 298.7,573.6 297.9,574.0 297.2,574.4 296.4,574.8 295.7,575.3 294.9,575.8 294.2,576.3 293.6,576.9 292.9,577.5 292.3,578.1 291.6,578.7 291.0,579.4 290.5,580.1 289.9,580.8 289.4,581.5 288.9,582.2 288.5,583.0 288.1,583.8 287.7,584.6 287.3,585.4 287.0,586.2 286.7,587.0 286.4,587.9 286.1,588.7 285.9,589.6 285.7,590.4 285.6,591.3 285.5,592.2 285.4,593.1 285.4,593.9 285.4,594.8 285.4,595.7 285.4,596.6 285.5,597.5 285.7,598.3 285.8,599.2 286.0,600.1 286.2,600.9 286.5,601.8 286.8,602.6 287.1,603.4 287.4,604.3 288.3,603.9 287.9,603.1 287.6,602.3 287.3,601.5 287.1,600.7 286.9,599.9 286.7,599.0 286.6,598.2 286.4,597.4 286.4,596.5 286.3,595.7 286.3,594.8 286.3,594.0 286.3,593.1 286.4,592.3 286.5,591.4 286.6,590.6 286.8,589.8 287.0,588.9 287.2,588.1 287.5,587.3 287.8,586.5 288.1,585.7 288.5,585.0 288.9,584.2 289.3,583.4 289.7,582.7 290.2,582.0 290.7,581.3 291.2,580.6 291.7,580.0 292.3,579.4 292.9,578.8 293.5,578.2 294.1,577.6 294.8,577.1 295.5,576.5 296.2,576.1 296.9,575.6 297.6,575.2 298.4,574.8 299.1,574.4 299.9,574.0 300.7,573.7 301.5,573.4 302.3,573.2 303.1,572.9 303.9,572.8 304.8,572.6" class="alabe"/><polygon points="329.9,573.4 329.0,573.6 328.2,574.0 327.4,574.3 326.6,574.7 325.8,575.1 325.0,575.5 324.3,576.0 323.5,576.5 322.8,577.0 322.1,577.5 321.5,578.1 320.8,578.7 320.2,579.3 319.6,580.0 319.0,580.6 318.4,581.3 317.9,582.0 317.4,582.8 316.9,583.5 316.5,584.3 316.1,585.1 315.7,585.9 315.3,586.7 315.0,587.5 314.7,588.3 314.5,589.2 314.2,590.0 314.0,590.9 313.9,591.8 313.8,592.6 313.7,593.5 313.6,594.4 313.6,595.3 313.6,596.2 313.6,597.1 313.7,597.9 313.8,598.8 313.9,599.7 314.1,600.6 314.3,601.4 314.5,602.3 314.8,603.1 315.1,603.9 315.4,604.8 315.8,605.6 316.2,606.4 316.6,607.1 317.1,607.9 317.8,607.4 317.4,606.7 317.0,605.9 316.6,605.2 316.3,604.4 316.0,603.6 315.7,602.8 315.4,602.0 315.2,601.2 315.0,600.4 314.8,599.5 314.7,598.7 314.6,597.8 314.5,597.0 314.5,596.1 314.5,595.3 314.5,594.4 314.6,593.6 314.7,592.8 314.8,591.9 314.9,591.1 315.1,590.3 315.3,589.4 315.6,588.6 315.9,587.8 316.2,587.0 316.5,586.2 316.9,585.5 317.3,584.7 317.7,584.0 318.2,583.3 318.6,582.6 319.2,581.9 319.7,581.2 320.2,580.6 320.8,580.0 321.4,579.4 322.1,578.8 322.7,578.2 323.4,577.7 324.1,577.2 324.8,576.8 325.5,576.3 326.2,575.9 327.0,575.5 327.8,575.1 328.5,574.8 329.3,574.5 330.1,574.2" class="alabe"/><polygon points="355.1,571.7 354.3,572.1 353.5,572.5 352.8,573.0 352.0,573.5 351.3,574.0 350.6,574.5 349.9,575.1 349.2,575.6 348.6,576.2 348.0,576.9 347.4,577.5 346.8,578.2 346.3,578.9 345.8,579.6 345.3,580.4 344.8,581.1 344.4,581.9 344.0,582.7 343.6,583.5 343.3,584.3 343.0,585.1 342.7,586.0 342.4,586.8 342.2,587.7 342.0,588.5 341.9,589.4 341.8,590.3 341.7,591.2 341.7,592.1 341.6,592.9 341.7,593.8 341.7,594.7 341.8,595.6 341.9,596.5 342.1,597.3 342.3,598.2 342.5,599.1 342.7,599.9 343.0,600.7 343.3,601.6 343.7,602.4 344.1,603.2 344.5,604.0 344.9,604.7 345.4,605.5 345.9,606.2 346.4,606.9 346.9,607.6 347.6,607.1 347.1,606.4 346.6,605.7 346.1,605.0 345.7,604.3 345.3,603.5 344.9,602.8 344.5,602.0 344.2,601.2 343.9,600.4 343.6,599.6 343.4,598.8 343.2,598.0 343.0,597.2 342.8,596.3 342.7,595.5 342.6,594.6 342.6,593.8 342.6,592.9 342.6,592.1 342.6,591.2 342.7,590.4 342.8,589.6 342.9,588.7 343.1,587.9 343.3,587.1 343.6,586.2 343.8,585.4 344.1,584.6 344.4,583.9 344.8,583.1 345.2,582.3 345.6,581.6 346.0,580.9 346.5,580.1 347.0,579.5 347.5,578.8 348.1,578.1 348.6,577.5 349.2,576.9 349.9,576.3 350.5,575.8 351.2,575.2 351.8,574.7 352.5,574.2 353.2,573.8 354.0,573.3 354.7,572.9 355.5,572.6" class="alabe"/><polygon points="379.9,566.8 379.2,567.3 378.5,567.8 377.8,568.4 377.1,568.9 376.4,569.5 375.8,570.1 375.2,570.8 374.6,571.5 374.1,572.1 373.5,572.8 373.0,573.6 372.5,574.3 372.1,575.1 371.7,575.9 371.3,576.7 370.9,577.5 370.6,578.3 370.3,579.1 370.1,580.0 369.8,580.8 369.6,581.7 369.5,582.6 369.3,583.4 369.2,584.3 369.2,585.2 369.1,586.1 369.1,587.0 369.2,587.8 369.2,588.7 369.3,589.6 369.5,590.5 369.6,591.3 369.8,592.2 370.1,593.1 370.3,593.9 370.6,594.7 371.0,595.6 371.3,596.4 371.7,597.2 372.1,597.9 372.6,598.7 373.1,599.4 373.6,600.2 374.1,600.9 374.7,601.6 375.3,602.2 375.9,602.9 376.5,603.5 377.1,602.8 376.5,602.2 375.9,601.6 375.4,601.0 374.8,600.3 374.3,599.6 373.8,598.9 373.4,598.2 372.9,597.5 372.5,596.7 372.2,596.0 371.8,595.2 371.5,594.4 371.2,593.6 371.0,592.8 370.7,592.0 370.5,591.2 370.4,590.3 370.2,589.5 370.1,588.6 370.1,587.8 370.0,586.9 370.0,586.1 370.1,585.2 370.1,584.4 370.2,583.5 370.4,582.7 370.5,581.9 370.7,581.0 370.9,580.2 371.2,579.4 371.5,578.6 371.8,577.8 372.1,577.0 372.5,576.3 372.9,575.5 373.3,574.8 373.8,574.1 374.3,573.4 374.8,572.7 375.3,572.0 375.9,571.4 376.5,570.8 377.1,570.2 377.7,569.6 378.3,569.1 379.0,568.5 379.7,568.1 380.4,567.6" class="alabe"/><polygon points="403.9,558.7 403.2,559.3 402.6,559.9 401.9,560.5 401.3,561.2 400.8,561.8 400.2,562.5 399.7,563.3 399.2,564.0 398.8,564.7 398.3,565.5 397.9,566.3 397.5,567.1 397.2,567.9 396.9,568.7 396.6,569.6 396.4,570.4 396.1,571.3 396.0,572.2 395.8,573.0 395.7,573.9 395.6,574.8 395.6,575.7 395.5,576.6 395.6,577.4 395.6,578.3 395.7,579.2 395.8,580.1 396.0,581.0 396.1,581.8 396.4,582.7 396.6,583.5 396.9,584.4 397.2,585.2 397.5,586.0 397.9,586.8 398.3,587.6 398.8,588.4 399.2,589.1 399.7,589.9 400.2,590.6 400.8,591.3 401.3,591.9 401.9,592.6 402.6,593.2 403.2,593.8 403.9,594.4 404.6,595.0 405.3,595.5 405.8,594.8 405.1,594.2 404.5,593.7 403.8,593.2 403.2,592.6 402.6,592.0 402.0,591.3 401.5,590.7 401.0,590.0 400.5,589.3 400.0,588.6 399.5,587.9 399.1,587.2 398.7,586.4 398.4,585.6 398.0,584.9 397.7,584.1 397.5,583.2 397.2,582.4 397.0,581.6 396.9,580.8 396.7,579.9 396.6,579.1 396.5,578.3 396.5,577.4 396.5,576.6 396.5,575.7 396.5,574.9 396.6,574.0 396.7,573.2 396.9,572.3 397.0,571.5 397.2,570.7 397.5,569.9 397.7,569.1 398.0,568.3 398.4,567.5 398.7,566.7 399.1,565.9 399.5,565.2 400.0,564.5 400.5,563.8 401.0,563.1 401.5,562.4 402.0,561.8 402.6,561.1 403.2,560.5 403.8,560.0 404.5,559.4" class="alabe"/><polygon points="426.6,547.5 426.0,548.2 425.4,548.9 424.9,549.6 424.4,550.3 423.9,551.1 423.5,551.8 423.0,552.6 422.6,553.4 422.3,554.2 422.0,555.0 421.7,555.8 421.4,556.7 421.2,557.5 421.0,558.4 420.8,559.3 420.7,560.1 420.5,561.0 420.5,561.9 420.4,562.8 420.4,563.7 420.5,564.6 420.5,565.4 420.6,566.3 420.8,567.2 420.9,568.1 421.1,568.9 421.4,569.8 421.6,570.6 421.9,571.5 422.2,572.3 422.6,573.1 423.0,573.9 423.4,574.7 423.9,575.4 424.3,576.2 424.8,576.9 425.4,577.6 425.9,578.3 426.5,579.0 427.1,579.6 427.7,580.2 428.4,580.8 429.1,581.4 429.8,581.9 430.5,582.4 431.2,582.9 432.0,583.4 432.8,583.8 433.2,583.0 432.4,582.6 431.7,582.2 431.0,581.7 430.3,581.2 429.6,580.7 429.0,580.1 428.4,579.6 427.8,579.0 427.2,578.3 426.6,577.7 426.1,577.0 425.6,576.4 425.1,575.7 424.6,574.9 424.2,574.2 423.8,573.5 423.4,572.7 423.1,571.9 422.8,571.1 422.5,570.3 422.2,569.5 422.0,568.7 421.8,567.9 421.7,567.0 421.5,566.2 421.4,565.4 421.4,564.5 421.4,563.7 421.4,562.8 421.4,562.0 421.5,561.1 421.6,560.3 421.7,559.4 421.8,558.6 422.0,557.8 422.3,556.9 422.5,556.1 422.8,555.3 423.1,554.5 423.5,553.8 423.8,553.0 424.2,552.3 424.7,551.5 425.1,550.8 425.6,550.1 426.1,549.4 426.7,548.8 427.2,548.1" class="alabe"/><polygon points="447.6,533.5 447.1,534.2 446.6,535.0 446.2,535.7 445.8,536.5 445.4,537.3 445.1,538.1 444.8,539.0 444.5,539.8 444.2,540.7 444.0,541.5 443.8,542.4 443.7,543.2 443.5,544.1 443.5,545.0 443.4,545.9 443.4,546.8 443.4,547.7 443.4,548.5 443.5,549.4 443.6,550.3 443.8,551.2 444.0,552.0 444.2,552.9 444.4,553.7 444.7,554.6 445.0,555.4 445.4,556.2 445.7,557.0 446.1,557.8 446.6,558.6 447.0,559.3 447.5,560.1 448.0,560.8 448.6,561.5 449.1,562.2 449.7,562.8 450.3,563.5 451.0,564.1 451.6,564.7 452.3,565.2 453.0,565.7 453.8,566.3 454.5,566.7 455.3,567.2 456.1,567.6 456.8,568.0 457.7,568.3 458.5,568.7 458.8,567.8 458.0,567.5 457.2,567.2 456.5,566.8 455.7,566.4 455.0,566.0 454.3,565.5 453.6,565.0 452.9,564.5 452.2,564.0 451.6,563.4 451.0,562.8 450.4,562.2 449.8,561.6 449.3,560.9 448.7,560.3 448.3,559.6 447.8,558.9 447.3,558.1 446.9,557.4 446.5,556.6 446.2,555.9 445.9,555.1 445.6,554.3 445.3,553.5 445.1,552.7 444.9,551.8 444.7,551.0 444.5,550.2 444.4,549.3 444.4,548.5 444.3,547.6 444.3,546.8 444.3,545.9 444.4,545.1 444.5,544.2 444.6,543.4 444.7,542.6 444.9,541.7 445.1,540.9 445.4,540.1 445.6,539.3 445.9,538.5 446.3,537.7 446.6,536.9 447.0,536.2 447.4,535.4 447.9,534.7 448.4,534.0" class="alabe"/><polygon points="466.6,516.8 466.2,517.6 465.9,518.4 465.5,519.2 465.2,520.1 465.0,520.9 464.7,521.8 464.5,522.6 464.4,523.5 464.2,524.4 464.1,525.3 464.0,526.1 464.0,527.0 464.0,527.9 464.0,528.8 464.1,529.7 464.2,530.5 464.3,531.4 464.5,532.3 464.7,533.2 464.9,534.0 465.2,534.9 465.5,535.7 465.8,536.5 466.1,537.3 466.5,538.1 466.9,538.9 467.4,539.7 467.8,540.4 468.3,541.1 468.9,541.8 469.4,542.5 470.0,543.2 470.6,543.9 471.2,544.5 471.9,545.1 472.6,545.6 473.3,546.2 474.0,546.7 474.7,547.2 475.5,547.7 476.2,548.1 477.0,548.5 477.8,548.9 478.6,549.2 479.5,549.5 480.3,549.8 481.1,550.1 482.0,550.3 482.2,549.4 481.4,549.2 480.6,549.0 479.8,548.7 479.0,548.4 478.2,548.0 477.4,547.7 476.7,547.3 475.9,546.9 475.2,546.4 474.5,546.0 473.8,545.5 473.1,544.9 472.5,544.4 471.9,543.8 471.3,543.2 470.7,542.6 470.1,542.0 469.6,541.3 469.1,540.6 468.6,539.9 468.1,539.2 467.7,538.5 467.3,537.7 467.0,536.9 466.6,536.2 466.3,535.4 466.0,534.6 465.8,533.8 465.6,532.9 465.4,532.1 465.2,531.3 465.1,530.4 465.0,529.6 464.9,528.7 464.9,527.9 464.9,527.0 465.0,526.2 465.0,525.3 465.1,524.5 465.3,523.7 465.4,522.8 465.6,522.0 465.8,521.2 466.1,520.4 466.4,519.6 466.7,518.8 467.1,518.0 467.4,517.2" class="alabe"/><polygon points="483.3,497.8 483.0,498.7 482.8,499.5 482.6,500.4 482.4,501.2 482.2,502.1 482.1,503.0 482.0,503.9 481.9,504.7 481.9,505.6 481.9,506.5 482.0,507.4 482.0,508.3 482.2,509.1 482.3,510.0 482.5,510.9 482.7,511.7 482.9,512.6 483.2,513.4 483.5,514.3 483.8,515.1 484.2,515.9 484.6,516.7 485.0,517.4 485.5,518.2 486.0,518.9 486.5,519.7 487.0,520.4 487.6,521.0 488.2,521.7 488.8,522.3 489.4,523.0 490.1,523.5 490.8,524.1 491.5,524.6 492.2,525.1 493.0,525.6 493.7,526.1 494.5,526.5 495.3,526.9 496.1,527.2 496.9,527.6 497.8,527.9 498.6,528.1 499.5,528.4 500.3,528.6 501.2,528.7 502.1,528.9 502.9,529.0 503.0,528.1 502.2,528.0 501.3,527.9 500.5,527.7 499.7,527.5 498.9,527.3 498.0,527.0 497.2,526.7 496.5,526.4 495.7,526.1 494.9,525.7 494.2,525.3 493.4,524.8 492.7,524.4 492.0,523.9 491.4,523.4 490.7,522.8 490.1,522.3 489.4,521.7 488.9,521.1 488.3,520.4 487.7,519.8 487.2,519.1 486.7,518.4 486.3,517.7 485.8,517.0 485.4,516.2 485.0,515.5 484.7,514.7 484.4,513.9 484.1,513.1 483.8,512.3 483.6,511.5 483.4,510.7 483.2,509.9 483.1,509.0 483.0,508.2 482.9,507.3 482.8,506.5 482.8,505.6 482.9,504.8 482.9,503.9 483.0,503.1 483.1,502.2 483.3,501.4 483.4,500.6 483.7,499.8 483.9,498.9 484.2,498.1" class="alabe"/><polygon points="497.4,476.8 497.2,477.7 497.1,478.5 497.0,479.4 496.9,480.3 496.8,481.2 496.8,482.1 496.9,483.0 496.9,483.8 497.0,484.7 497.1,485.6 497.3,486.5 497.5,487.3 497.7,488.2 498.0,489.0 498.3,489.9 498.6,490.7 498.9,491.5 499.3,492.3 499.7,493.1 500.2,493.8 500.6,494.6 501.1,495.3 501.7,496.0 502.2,496.7 502.8,497.4 503.4,498.0 504.0,498.7 504.7,499.3 505.3,499.8 506.0,500.4 506.7,500.9 507.5,501.4 508.2,501.9 509.0,502.3 509.8,502.7 510.6,503.1 511.4,503.4 512.2,503.8 513.1,504.1 513.9,504.3 514.8,504.5 515.6,504.7 516.5,504.9 517.4,505.0 518.2,505.1 519.1,505.1 520.0,505.2 520.9,505.1 520.9,504.2 520.0,504.2 519.2,504.2 518.3,504.2 517.5,504.1 516.6,504.0 515.8,503.8 515.0,503.6 514.1,503.4 513.3,503.2 512.5,502.9 511.7,502.6 511.0,502.3 510.2,501.9 509.4,501.5 508.7,501.1 508.0,500.6 507.3,500.2 506.6,499.7 505.9,499.1 505.3,498.6 504.6,498.0 504.0,497.4 503.5,496.8 502.9,496.1 502.4,495.5 501.9,494.8 501.4,494.1 500.9,493.4 500.5,492.6 500.1,491.9 499.8,491.1 499.4,490.3 499.1,489.5 498.8,488.7 498.6,487.9 498.4,487.1 498.2,486.3 498.0,485.4 497.9,484.6 497.8,483.8 497.8,482.9 497.8,482.1 497.8,481.2 497.8,480.4 497.9,479.5 498.0,478.7 498.1,477.8 498.3,477.0" class="alabe"/><polygon points="508.6,454.1 508.5,455.0 508.5,455.9 508.5,456.8 508.6,457.7 508.6,458.5 508.7,459.4 508.9,460.3 509.0,461.2 509.3,462.0 509.5,462.9 509.8,463.7 510.1,464.5 510.4,465.4 510.8,466.2 511.2,467.0 511.6,467.7 512.0,468.5 512.5,469.2 513.0,470.0 513.6,470.7 514.1,471.3 514.7,472.0 515.3,472.6 516.0,473.3 516.6,473.8 517.3,474.4 518.0,474.9 518.7,475.5 519.5,475.9 520.2,476.4 521.0,476.8 521.8,477.2 522.6,477.6 523.4,477.9 524.3,478.2 525.1,478.5 526.0,478.7 526.8,478.9 527.7,479.1 528.6,479.2 529.4,479.3 530.3,479.4 531.2,479.5 532.1,479.5 533.0,479.4 533.8,479.4 534.7,479.3 535.6,479.2 535.5,478.3 534.6,478.4 533.8,478.5 532.9,478.5 532.1,478.6 531.2,478.5 530.4,478.5 529.5,478.4 528.7,478.3 527.8,478.2 527.0,478.0 526.2,477.8 525.4,477.6 524.6,477.3 523.8,477.1 523.0,476.7 522.2,476.4 521.4,476.0 520.7,475.6 520.0,475.2 519.2,474.7 518.6,474.2 517.9,473.7 517.2,473.1 516.6,472.6 516.0,472.0 515.4,471.4 514.8,470.7 514.3,470.1 513.8,469.4 513.3,468.7 512.8,468.0 512.4,467.3 512.0,466.5 511.6,465.8 511.2,465.0 510.9,464.2 510.6,463.4 510.4,462.6 510.1,461.8 509.9,461.0 509.8,460.1 509.6,459.3 509.5,458.4 509.5,457.6 509.4,456.8 509.4,455.9 509.4,455.1 509.5,454.2" class="alabe"/><polygon points="516.7,430.2 516.8,431.1 516.9,431.9 517.0,432.8 517.2,433.7 517.4,434.6 517.6,435.4 517.8,436.3 518.1,437.1 518.4,437.9 518.8,438.7 519.2,439.5 519.6,440.3 520.0,441.1 520.5,441.8 521.0,442.6 521.5,443.3 522.0,444.0 522.6,444.6 523.2,445.3 523.8,445.9 524.5,446.5 525.1,447.1 525.8,447.7 526.5,448.2 527.3,448.7 528.0,449.1 528.8,449.6 529.6,450.0 530.4,450.4 531.2,450.7 532.0,451.1 532.9,451.3 533.7,451.6 534.6,451.8 535.4,452.0 536.3,452.2 537.2,452.3 538.0,452.4 538.9,452.4 539.8,452.5 540.7,452.5 541.6,452.4 542.5,452.3 543.3,452.2 544.2,452.1 545.1,451.9 545.9,451.7 546.8,451.5 546.5,450.6 545.7,450.8 544.9,451.0 544.0,451.2 543.2,451.3 542.4,451.4 541.5,451.5 540.7,451.6 539.8,451.6 539.0,451.5 538.1,451.5 537.3,451.4 536.4,451.3 535.6,451.1 534.8,450.9 533.9,450.7 533.1,450.5 532.3,450.2 531.5,449.9 530.8,449.6 530.0,449.2 529.2,448.8 528.5,448.4 527.8,447.9 527.1,447.4 526.4,446.9 525.7,446.4 525.1,445.8 524.5,445.3 523.9,444.7 523.3,444.0 522.7,443.4 522.2,442.7 521.7,442.0 521.2,441.3 520.8,440.6 520.4,439.9 520.0,439.1 519.6,438.4 519.3,437.6 519.0,436.8 518.7,436.0 518.4,435.2 518.2,434.3 518.1,433.5 517.9,432.7 517.8,431.8 517.7,431.0 517.7,430.1" class="alabe"/><polygon points="521.7,405.4 521.9,406.2 522.1,407.1 522.3,408.0 522.6,408.8 522.9,409.6 523.2,410.5 523.6,411.3 524.0,412.1 524.4,412.8 524.8,413.6 525.3,414.3 525.8,415.1 526.3,415.8 526.9,416.4 527.5,417.1 528.1,417.7 528.7,418.4 529.4,419.0 530.1,419.5 530.8,420.1 531.5,420.6 532.2,421.1 533.0,421.5 533.8,421.9 534.6,422.3 535.4,422.7 536.2,423.0 537.0,423.3 537.9,423.6 538.7,423.9 539.6,424.1 540.4,424.3 541.3,424.4 542.2,424.5 543.1,424.6 543.9,424.6 544.8,424.6 545.7,424.6 546.6,424.6 547.5,424.5 548.3,424.3 549.2,424.2 550.1,424.0 550.9,423.8 551.8,423.5 552.6,423.2 553.4,422.9 554.3,422.6 553.9,421.7 553.1,422.1 552.3,422.4 551.5,422.7 550.7,422.9 549.9,423.1 549.0,423.3 548.2,423.4 547.4,423.6 546.5,423.6 545.7,423.7 544.8,423.7 544.0,423.7 543.1,423.7 542.3,423.6 541.4,423.5 540.6,423.4 539.8,423.2 538.9,423.0 538.1,422.8 537.3,422.5 536.5,422.2 535.7,421.9 535.0,421.5 534.2,421.1 533.4,420.7 532.7,420.3 532.0,419.8 531.3,419.3 530.6,418.8 530.0,418.3 529.4,417.7 528.8,417.1 528.2,416.5 527.6,415.9 527.1,415.2 526.5,414.5 526.1,413.8 525.6,413.1 525.2,412.4 524.8,411.6 524.4,410.9 524.0,410.1 523.7,409.3 523.4,408.5 523.2,407.7 522.9,406.9 522.8,406.1 522.6,405.2" class="alabe"/>
  <circle cx="330.0" cy="380.0" r="228.0" fill="none" stroke="#173f6b" stroke-width="3"/>
  <circle cx="330.0" cy="380.0" r="193.8" fill="none" stroke="#4a88b7" stroke-width="2" stroke-dasharray="7 5"/>
  <circle cx="330.0" cy="380.0" r="45.6" fill="#d9dde5" stroke="#333" stroke-width="2"/>
  <text x="150" y="690" class="nota">D2 = 600 mm; D1 = 510 mm; arco R = 30.1 mm</text>
  <text x="150" y="714" class="nota">beta1 = 17.5 grados; beta2 = 125.0 grados; espesor = 1.2 mm</text>
  <text x="830" y="105" class="subtitulo">Voluta</text>
  <polyline points="972.9,380.0 974.6,374.3 976.0,368.3 977.0,362.3 977.7,356.0 978.1,349.7 978.1,343.2 977.8,336.7 977.0,330.1 975.9,323.5 974.4,316.8 972.5,310.2 970.2,303.6 967.5,297.0 964.4,290.5 960.9,284.1 956.9,277.9 952.6,271.8 947.9,265.9 942.9,260.1 937.4,254.6 931.6,249.4 925.4,244.4 918.9,239.7 912.0,235.3 904.9,231.2 897.4,227.5 889.7,224.2 881.7,221.3 873.4,218.8 865.0,216.8 856.4,215.1 847.6,214.0 838.6,213.3 829.5,213.1 820.4,213.4 811.1,214.2 801.9,215.5 792.6,217.4 783.4,219.8 774.2,222.7 765.0,226.1 756.0,230.0 747.2,234.5 738.5,239.5 730.0,245.0 721.8,251.0 713.8,257.5 706.1,264.5 698.7,272.0 691.7,279.9 685.0,288.3 678.8,297.1 673.0,306.3 667.6,315.9 662.8,325.8 658.4,336.1 654.6,346.7 651.3,357.5 648.5,368.7 646.4,380.0 644.9,391.5 643.9,403.2 643.6,415.1 644.0,427.0 644.9,439.0 646.6,451.0 648.9,463.0 651.8,474.9 655.4,486.8 659.7,498.5 664.6,510.1 670.2,521.5 676.5,532.7 683.4,543.6 690.9,554.1 699.0,564.4 707.7,574.3 717.0,583.7 726.9,592.7 737.3,601.3 748.2,609.3 759.6,616.8 771.5,623.7 783.8,630.0 796.5,635.7 809.6,640.7 823.0,645.1 836.8,648.8 850.8,651.7 865.0,654.0 879.4,655.4 894.0,656.1 908.7,656.0 923.5,655.2 938.3,653.5 953.1,651.1 967.8,647.8 982.4,643.8 996.9,638.9 1011.2,633.2 1025.3,626.8 1039.0,619.5 1052.5,611.5 1065.6,602.8 1078.3,593.3 1090.5,583.1 1102.3,572.1 1113.5,560.5 1124.2,548.3 1134.2,535.4 1143.6,522.0 1152.4,507.9 1160.4,493.4 1167.7,478.3 1174.2,462.8 1179.9,446.9 1184.8,430.6 1188.8,414.0 1192.0,397.1 1194.3,380.0" fill="none" stroke="#175d9c" stroke-width="5"/>
  <polyline points="972.9,380.0 972.9,225.0 1194.3,225.0 1194.3,380.0" fill="none" stroke="#175d9c" stroke-width="5"/>
  <circle cx="865.0" cy="380.0" r="93.0" fill="#e8f3fc" stroke="#173f6b" stroke-width="3"/>
  <text x="745" y="690" class="nota">B = 280 mm; lengua = 48 mm; salida = 280 x 714 mm</text>
  <text x="745" y="714" class="nota">Radio exterior final = 1062.3 mm</text>
</svg>
