0
SECTION
2
HEADER
9
$ACADVER
1
AC1009
0
ENDSEC
0
SECTION
2
ENTITIES
0
CIRCLE
8
RODETE_REFERENCIA
10
0.000000
20
0.000000
30
0.0
40
300.000000
0
POLYLINE
8
VOLUTA_EXTERIOR
66
1
70
0
0
VERTEX
8
VOLUTA_EXTERIOR
10
348.000000
20
0.000000
30
0.0
0
VERTEX
8
VOLUTA_EXTERIOR
10
351.753844
20
12.283515
30
0.0
0
VERTEX
8
VOLUTA_EXTERIOR
10
355.069464
20
24.828876
30
0.0
0
VERTEX
8
VOLUTA_EXTERIOR
10
357.933166
20
37.620292
30
0.0
0
VERTEX
8
VOLUTA_EXTERIOR
10
360.331829
20
50.641336
30
0.0
0
VERTEX
8
VOLUTA_EXTERIOR
10
362.252934
20
63.874966
30
0.0
0
VERTEX
8
VOLUTA_EXTERIOR
10
363.684594
20
77.303547
30
0.0
0
VERTEX
8
VOLUTA_EXTERIOR
10
364.615572
20
90.908872
30
0.0
0
VERTEX
8
VOLUTA_EXTERIOR
10
365.035315
20
104.672192
30
0.0
0
VERTEX
8
VOLUTA_EXTERIOR
10
364.933972
20
118.574235
30
0.0
0
VERTEX
8
VOLUTA_EXTERIOR
10
364.302422
20
132.595238
30
0.0
0
VERTEX
8
VOLUTA_EXTERIOR
10
363.132293
20
146.714970
30
0.0
0
VERTEX
8
VOLUTA_EXTERIOR
10
361.415984
20
160.912763
30
0.0
0
VERTEX
8
VOLUTA_EXTERIOR
10
359.146688
20
175.167544
30
0.0
0
VERTEX
8
VOLUTA_EXTERIOR
10
356.318406
20
189.457857
30
0.0
0
VERTEX
8
VOLUTA_EXTERIOR
10
352.925972
20
203.761905
30
0.0
0
VERTEX
8
VOLUTA_EXTERIOR
10
348.965061
20
218.057572
30
0.0
0
VERTEX
8
VOLUTA_EXTERIOR
10
344.432213
20
232.322461
30
0.0
0
VERTEX
8
VOLUTA_EXTERIOR
10
339.324842
20
246.533929
30
0.0
0
VERTEX
8
VOLUTA_EXTERIOR
10
333.641251
20
260.669114
30
0.0
0
VERTEX
8
VOLUTA_EXTERIOR
10
327.380644
20
274.704978
30
0.0
0
VERTEX
8
VOLUTA_EXTERIOR
10
320.543135
20
288.618335
30
0.0
0
VERTEX
8
VOLUTA_EXTERIOR
10
313.129757
20
302.385891
30
0.0
0
VERTEX
8
VOLUTA_EXTERIOR
10
305.142472
20
315.984280
30
0.0
0
VERTEX
8
VOLUTA_EXTERIOR
10
296.584175
20
329.390097
30
0.0
0
VERTEX
8
VOLUTA_EXTERIOR
10
287.458700
20
342.579939
30
0.0
0
VERTEX
8
VOLUTA_EXTERIOR
10
277.770822
20
355.530439
30
0.0
0
VERTEX
8
VOLUTA_EXTERIOR
10
267.526259
20
368.218306
30
0.0
0
VERTEX
8
VOLUTA_EXTERIOR
10
256.731675
20
380.620361
30
0.0
0
VERTEX
8
VOLUTA_EXTERIOR
10
245.394676
20
392.713574
30
0.0
0
VERTEX
8
VOLUTA_EXTERIOR
10
233.523810
20
404.475103
30
0.0
0
VERTEX
8
VOLUTA_EXTERIOR
10
221.128558
20
415.882331
30
0.0
0
VERTEX
8
VOLUTA_EXTERIOR
10
208.219336
20
426.912905
30
0.0
0
VERTEX
8
VOLUTA_EXTERIOR
10
194.807484
20
437.544772
30
0.0
0
VERTEX
8
VOLUTA_EXTERIOR
10
180.905254
20
447.756216
30
0.0
0
VERTEX
8
VOLUTA_EXTERIOR
10
166.525808
20
457.525896
30
0.0
0
VERTEX
8
VOLUTA_EXTERIOR
10
151.683199
20
466.832884
30
0.0
0
VERTEX
8
VOLUTA_EXTERIOR
10
136.392364
20
475.656700
30
0.0
0
VERTEX
8
VOLUTA_EXTERIOR
10
120.669106
20
483.977348
30
0.0
0
VERTEX
8
VOLUTA_EXTERIOR
10
104.530078
20
491.775351
30
0.0
0
VERTEX
8
VOLUTA_EXTERIOR
10
87.992769
20
499.031789
30
0.0
0
VERTEX
8
VOLUTA_EXTERIOR
10
71.075482
20
505.728331
30
0.0
0
VERTEX
8
VOLUTA_EXTERIOR
10
53.797316
20
511.847269
30
0.0
0
VERTEX
8
VOLUTA_EXTERIOR
10
36.178143
20
517.371552
30
0.0
0
VERTEX
8
VOLUTA_EXTERIOR
10
18.238588
20
522.284819
30
0.0
0
VERTEX
8
VOLUTA_EXTERIOR
10
0.000000
20
526.571429
30
0.0
0
VERTEX
8
VOLUTA_EXTERIOR
10
-18.515568
20
530.216492
30
0.0
0
VERTEX
8
VOLUTA_EXTERIOR
10
-37.285389
20
533.205902
30
0.0
0
VERTEX
8
VOLUTA_EXTERIOR
10
-56.286089
20
535.526362
30
0.0
0
VERTEX
8
VOLUTA_EXTERIOR
10
-75.493675
20
537.165412
30
0.0
0
VERTEX
8
VOLUTA_EXTERIOR
10
-94.883569
20
538.111462
30
0.0
0
VERTEX
8
VOLUTA_EXTERIOR
10
-114.430634
20
538.353808
30
0.0
0
VERTEX
8
VOLUTA_EXTERIOR
10
-134.109211
20
537.882666
30
0.0
0
VERTEX
8
VOLUTA_EXTERIOR
10
-153.893148
20
536.689189
30
0.0
0
VERTEX
8
VOLUTA_EXTERIOR
10
-173.755841
20
534.765493
30
0.0
0
VERTEX
8
VOLUTA_EXTERIOR
10
-193.670263
20
532.104675
30
0.0
0
VERTEX
8
VOLUTA_EXTERIOR
10
-213.609004
20
528.700838
30
0.0
0
VERTEX
8
VOLUTA_EXTERIOR
10
-233.544307
20
524.549101
30
0.0
0
VERTEX
8
VOLUTA_EXTERIOR
10
-253.448106
20
519.645624
30
0.0
0
VERTEX
8
VOLUTA_EXTERIOR
10
-273.292065
20
513.987619
30
0.0
0
VERTEX
8
VOLUTA_EXTERIOR
10
-293.047619
20
507.573365
30
0.0
0
VERTEX
8
VOLUTA_EXTERIOR
10
-312.686012
20
500.402221
30
0.0
0
VERTEX
8
VOLUTA_EXTERIOR
10
-332.178337
20
492.474637
30
0.0
0
VERTEX
8
VOLUTA_EXTERIOR
10
-351.495581
20
483.792163
30
0.0
0
VERTEX
8
VOLUTA_EXTERIOR
10
-370.608663
20
474.357457
30
0.0
0
VERTEX
8
VOLUTA_EXTERIOR
10
-389.488480
20
464.174295
30
0.0
0
VERTEX
8
VOLUTA_EXTERIOR
10
-408.105943
20
453.247568
30
0.0
0
VERTEX
8
VOLUTA_EXTERIOR
10
-426.432029
20
441.583293
30
0.0
0
VERTEX
8
VOLUTA_EXTERIOR
10
-444.437816
20
429.188610
30
0.0
0
VERTEX
8
VOLUTA_EXTERIOR
10
-462.094530
20
416.071784
30
0.0
0
VERTEX
8
VOLUTA_EXTERIOR
10
-479.373589
20
402.242202
30
0.0
0
VERTEX
8
VOLUTA_EXTERIOR
10
-496.246645
20
387.710371
30
0.0
0
VERTEX
8
VOLUTA_EXTERIOR
10
-512.685627
20
372.487911
30
0.0
0
VERTEX
8
VOLUTA_EXTERIOR
10
-528.662785
20
356.587551
30
0.0
0
VERTEX
8
VOLUTA_EXTERIOR
10
-544.150734
20
340.023116
30
0.0
0
VERTEX
8
VOLUTA_EXTERIOR
10
-559.122496
20
322.809524
30
0.0
0
VERTEX
8
VOLUTA_EXTERIOR
10
-573.551544
20
304.962766
30
0.0
0
VERTEX
8
VOLUTA_EXTERIOR
10
-587.411842
20
286.499898
30
0.0
0
VERTEX
8
VOLUTA_EXTERIOR
10
-600.677889
20
267.439027
30
0.0
0
VERTEX
8
VOLUTA_EXTERIOR
10
-613.324761
20
247.799288
30
0.0
0
VERTEX
8
VOLUTA_EXTERIOR
10
-625.328150
20
227.600833
30
0.0
0
VERTEX
8
VOLUTA_EXTERIOR
10
-636.664405
20
206.864805
30
0.0
0
VERTEX
8
VOLUTA_EXTERIOR
10
-647.310574
20
185.613320
30
0.0
0
VERTEX
8
VOLUTA_EXTERIOR
10
-657.244442
20
163.869444
30
0.0
0
VERTEX
8
VOLUTA_EXTERIOR
10
-666.444565
20
141.657165
30
0.0
0
VERTEX
8
VOLUTA_EXTERIOR
10
-674.890316
20
119.001372
30
0.0
0
VERTEX
8
VOLUTA_EXTERIOR
10
-682.561915
20
95.927821
30
0.0
0
VERTEX
8
VOLUTA_EXTERIOR
10
-689.440464
20
72.463113
30
0.0
0
VERTEX
8
VOLUTA_EXTERIOR
10
-695.507990
20
48.634656
30
0.0
0
VERTEX
8
VOLUTA_EXTERIOR
10
-700.747467
20
24.470641
30
0.0
0
VERTEX
8
VOLUTA_EXTERIOR
10
-705.142857
20
0.000000
30
0.0
0
VERTEX
8
VOLUTA_EXTERIOR
10
-708.679140
20
-24.747621
30
0.0
0
VERTEX
8
VOLUTA_EXTERIOR
10
-711.342340
20
-49.741902
30
0.0
0
VERTEX
8
VOLUTA_EXTERIOR
10
-713.119557
20
-74.951886
30
0.0
0
VERTEX
8
VOLUTA_EXTERIOR
10
-713.998996
20
-100.346015
30
0.0
0
VERTEX
8
VOLUTA_EXTERIOR
10
-713.969989
20
-125.892172
30
0.0
0
VERTEX
8
VOLUTA_EXTERIOR
10
-713.023022
20
-151.557722
30
0.0
0
VERTEX
8
VOLUTA_EXTERIOR
10
-711.149760
20
-177.309549
30
0.0
0
VERTEX
8
VOLUTA_EXTERIOR
10
-708.343063
20
-203.114105
30
0.0
0
VERTEX
8
VOLUTA_EXTERIOR
10
-704.597013
20
-228.937448
30
0.0
0
VERTEX
8
VOLUTA_EXTERIOR
10
-699.906929
20
-254.745289
30
0.0
0
VERTEX
8
VOLUTA_EXTERIOR
10
-694.269383
20
-280.503039
30
0.0
0
VERTEX
8
VOLUTA_EXTERIOR
10
-687.682219
20
-306.175850
30
0.0
0
VERTEX
8
VOLUTA_EXTERIOR
10
-680.144561
20
-331.728667
30
0.0
0
VERTEX
8
VOLUTA_EXTERIOR
10
-671.656832
20
-357.126273
30
0.0
0
VERTEX
8
VOLUTA_EXTERIOR
10
-662.220759
20
-382.333333
30
0.0
0
VERTEX
8
VOLUTA_EXTERIOR
10
-651.839381
20
-407.314452
30
0.0
0
VERTEX
8
VOLUTA_EXTERIOR
10
-640.517060
20
-432.034212
30
0.0
0
VERTEX
8
VOLUTA_EXTERIOR
10
-628.259483
20
-456.457233
30
0.0
0
VERTEX
8
VOLUTA_EXTERIOR
10
-615.073663
20
-480.548213
30
0.0
0
VERTEX
8
VOLUTA_EXTERIOR
10
-600.967945
20
-504.271981
30
0.0
0
VERTEX
8
VOLUTA_EXTERIOR
10
-585.952001
20
-527.593551
30
0.0
0
VERTEX
8
VOLUTA_EXTERIOR
10
-570.036828
20
-550.478166
30
0.0
0
VERTEX
8
VOLUTA_EXTERIOR
10
-553.234747
20
-572.891351
30
0.0
0
VERTEX
8
VOLUTA_EXTERIOR
10
-535.559392
20
-594.798963
30
0.0
0
VERTEX
8
VOLUTA_EXTERIOR
10
-517.025704
20
-616.167240
30
0.0
0
VERTEX
8
VOLUTA_EXTERIOR
10
-497.649920
20
-636.962851
30
0.0
0
VERTEX
8
VOLUTA_EXTERIOR
10
-477.449564
20
-657.152947
30
0.0
0
VERTEX
8
VOLUTA_EXTERIOR
10
-456.443426
20
-676.705208
30
0.0
0
VERTEX
8
VOLUTA_EXTERIOR
10
-434.651557
20
-695.587894
30
0.0
0
VERTEX
8
VOLUTA_EXTERIOR
10
-412.095238
20
-713.769890
30
0.0
0
VERTEX
8
VOLUTA_EXTERIOR
10
-388.796973
20
-731.220757
30
0.0
0
VERTEX
8
VOLUTA_EXTERIOR
10
-364.780460
20
-747.910779
30
0.0
0
VERTEX
8
VOLUTA_EXTERIOR
10
-340.070570
20
-763.811007
30
0.0
0
VERTEX
8
VOLUTA_EXTERIOR
10
-314.693323
20
-778.893307
30
0.0
0
VERTEX
8
VOLUTA_EXTERIOR
10
-288.675859
20
-793.130403
30
0.0
0
VERTEX
8
VOLUTA_EXTERIOR
10
-262.046411
20
-806.495926
30
0.0
0
VERTEX
8
VOLUTA_EXTERIOR
10
-234.834277
20
-818.964449
30
0.0
0
VERTEX
8
VOLUTA_EXTERIOR
10
-207.069783
20
-830.511536
30
0.0
0
VERTEX
8
VOLUTA_EXTERIOR
10
-178.784253
20
-841.113780
30
0.0
0
VERTEX
8
VOLUTA_EXTERIOR
10
-150.009975
20
-850.748844
30
0.0
0
VERTEX
8
VOLUTA_EXTERIOR
10
-120.780161
20
-859.395498
30
0.0
0
VERTEX
8
VOLUTA_EXTERIOR
10
-91.128910
20
-867.033660
30
0.0
0
VERTEX
8
VOLUTA_EXTERIOR
10
-61.091170
20
-873.644427
30
0.0
0
VERTEX
8
VOLUTA_EXTERIOR
10
-30.702694
20
-879.210114
30
0.0
0
VERTEX
8
VOLUTA_EXTERIOR
10
-0.000000
20
-883.714286
30
0.0
0
VERTEX
8
VOLUTA_EXTERIOR
10
30.979674
20
-887.141787
30
0.0
0
VERTEX
8
VOLUTA_EXTERIOR
10
62.198415
20
-889.478777
30
0.0
0
VERTEX
8
VOLUTA_EXTERIOR
10
93.617683
20
-890.712753
30
0.0
0
VERTEX
8
VOLUTA_EXTERIOR
10
125.198354
20
-890.832580
30
0.0
0
VERTEX
8
VOLUTA_EXTERIOR
10
156.900776
20
-889.828516
30
0.0
0
VERTEX
8
VOLUTA_EXTERIOR
10
188.684810
20
-887.692237
30
0.0
0
VERTEX
8
VOLUTA_EXTERIOR
10
220.509888
20
-884.416854
30
0.0
0
VERTEX
8
VOLUTA_EXTERIOR
10
252.335061
20
-879.996937
30
0.0
0
VERTEX
8
VOLUTA_EXTERIOR
10
284.119054
20
-874.428534
30
0.0
0
VERTEX
8
VOLUTA_EXTERIOR
10
315.820315
20
-867.709183
30
0.0
0
VERTEX
8
VOLUTA_EXTERIOR
10
347.397073
20
-859.837929
30
0.0
0
VERTEX
8
VOLUTA_EXTERIOR
10
378.807394
20
-850.815336
30
0.0
0
VERTEX
8
VOLUTA_EXTERIOR
10
410.009229
20
-840.643498
30
0.0
0
VERTEX
8
VOLUTA_EXTERIOR
10
440.960480
20
-829.326045
30
0.0
0
VERTEX
8
VOLUTA_EXTERIOR
10
471.619048
20
-816.868152
30
0.0
0
VERTEX
8
VOLUTA_EXTERIOR
10
501.942892
20
-803.276541
30
0.0
0
VERTEX
8
VOLUTA_EXTERIOR
10
531.890088
20
-788.559484
30
0.0
0
VERTEX
8
VOLUTA_EXTERIOR
10
561.418885
20
-772.726803
30
0.0
0
VERTEX
8
VOLUTA_EXTERIOR
10
590.487762
20
-755.789869
30
0.0
0
VERTEX
8
VOLUTA_EXTERIOR
10
619.055483
20
-737.761596
30
0.0
0
VERTEX
8
VOLUTA_EXTERIOR
10
647.081160
20
-718.656434
30
0.0
0
VERTEX
8
VOLUTA_EXTERIOR
10
674.524304
20
-698.490364
30
0.0
0
VERTEX
8
VOLUTA_EXTERIOR
10
701.344887
20
-677.280885
30
0.0
0
VERTEX
8
VOLUTA_EXTERIOR
10
727.503396
20
-655.047000
30
0.0
0
VERTEX
8
VOLUTA_EXTERIOR
10
752.960890
20
-631.809205
30
0.0
0
VERTEX
8
VOLUTA_EXTERIOR
10
777.679057
20
-607.589469
30
0.0
0
VERTEX
8
VOLUTA_EXTERIOR
10
801.620268
20
-582.411216
30
0.0
0
VERTEX
8
VOLUTA_EXTERIOR
10
824.747632
20
-556.299302
30
0.0
0
VERTEX
8
VOLUTA_EXTERIOR
10
847.025054
20
-529.279997
30
0.0
0
VERTEX
8
VOLUTA_EXTERIOR
10
868.417283
20
-501.380952
30
0.0
0
VERTEX
8
VOLUTA_EXTERIOR
10
888.889970
20
-472.631181
30
0.0
0
VERTEX
8
VOLUTA_EXTERIOR
10
908.409716
20
-443.061022
30
0.0
0
VERTEX
8
VOLUTA_EXTERIOR
10
926.944124
20
-412.702114
30
0.0
0
VERTEX
8
VOLUTA_EXTERIOR
10
944.461852
20
-381.587358
30
0.0
0
VERTEX
8
VOLUTA_EXTERIOR
10
960.932657
20
-349.750884
30
0.0
0
VERTEX
8
VOLUTA_EXTERIOR
10
976.327447
20
-317.228017
30
0.0
0
VERTEX
8
VOLUTA_EXTERIOR
10
990.618323
20
-284.055233
30
0.0
0
VERTEX
8
VOLUTA_EXTERIOR
10
1003.778630
20
-250.270121
30
0.0
0
VERTEX
8
VOLUTA_EXTERIOR
10
1015.782994
20
-215.911341
30
0.0
0
VERTEX
8
VOLUTA_EXTERIOR
10
1026.607371
20
-181.018578
30
0.0
0
VERTEX
8
VOLUTA_EXTERIOR
10
1036.229082
20
-145.632500
30
0.0
0
VERTEX
8
VOLUTA_EXTERIOR
10
1044.626856
20
-109.794707
30
0.0
0
VERTEX
8
VOLUTA_EXTERIOR
10
1051.780865
20
-73.547683
30
0.0
0
VERTEX
8
VOLUTA_EXTERIOR
10
1057.672762
20
-36.934747
30
0.0
0
VERTEX
8
VOLUTA_EXTERIOR
10
1062.285714
20
-0.000000
30
0.0
0
SEQEND
8
VOLUTA_EXTERIOR
0
LINE
8
SALIDA
10
348.000000
20
0.000000
30
0.0
11
348.000000
21
500.000000
31
0.0
0
LINE
8
SALIDA
10
1062.285714
20
0.000000
30
0.0
11
1062.285714
21
500.000000
31
0.0
0
LINE
8
SALIDA
10
348.000000
20
500.000000
30
0.0
11
1062.285714
21
500.000000
31
0.0
0
ENDSEC
0
EOF
